<svg width="441" height="359" viewBox="0 0 441 359" fill="none" xmlns="http://www.w3.org/2000/svg">
<path d="M48.1877 65.8042C49.2061 64.4729 49.9334 62.6797 52.1519 63.1325C54.434 63.6034 55.716 65.2336 56.1524 67.2985C56.807 70.3687 56.9434 73.5566 57.6344 76.6177C59.6073 85.4206 64.5989 92.4575 71.0815 98.5163C73.2818 100.572 75.7639 102.32 78.1369 104.186C78.7643 104.675 79.4825 105.046 80.1644 105.472C77.755 100.771 75.2184 96.2884 73.0908 91.6062C68.9267 82.441 66.3991 72.7505 64.2716 62.9514C62.8168 56.2496 60.953 49.6111 59.8346 42.855C57.9344 31.3622 57.9344 19.8242 60.3711 8.36772C60.4893 7.82433 60.5165 7.15414 60.853 6.78283C61.5349 6.00397 62.3713 4.89907 63.1896 4.84473C64.0443 4.79039 65.5263 5.65982 65.7627 6.42962C66.6173 9.12847 67.3265 11.936 67.5992 14.7526C68.3175 22.1336 68.7085 29.5419 69.4177 36.9229C69.5813 38.6799 70.2723 40.4731 71.0724 42.0761C72.2907 44.5032 74.0273 44.9742 76.264 43.4346C78.3369 42.0127 80.2372 40.3282 82.101 38.6346C91.7386 29.8679 97.6757 18.8823 101.522 6.62887C102.022 5.04398 102.831 3.54059 103.649 2.09155C104.458 0.669675 105.731 -0.371825 107.468 0.126284C109.213 0.633449 109.314 2.26362 109.314 3.76701C109.304 9.11941 108.604 14.3722 106.859 19.462C103.84 28.2558 100.094 36.6965 94.3571 44.0957C92.2568 46.8036 89.8202 49.2941 87.2471 51.5583C83.3285 54.9997 82.0829 59.3922 81.8192 64.3099C81.0645 78.0758 86.9926 89.2968 95.3663 99.5488C97.5302 102.202 100.003 104.602 102.695 106.921C102.094 104.195 101.403 101.487 100.912 98.7337C99.8851 92.9737 99.3668 87.1595 100.703 81.4086C101.158 79.4524 102.294 77.4871 103.604 75.9475C105.395 73.8464 108.013 74.6252 108.368 77.3603C108.75 80.3218 108.577 83.3557 108.686 86.3534C109.295 102.076 116.514 114.157 129.343 122.996C137.753 128.792 147.355 131.917 157.229 133.964C163.12 135.186 168.194 137.767 173.185 140.819C174.594 141.68 176.04 142.495 177.467 143.328C177.622 143.21 177.786 143.093 177.94 142.984C177.086 140.575 176.349 138.12 175.358 135.766C173.703 131.826 171.958 127.923 170.148 124.056C167.139 117.653 166.566 110.987 168.012 104.159C168.221 103.153 169.412 101.759 170.285 101.659C171.185 101.55 172.421 102.655 173.167 103.516C173.758 104.195 174.003 105.309 174.094 106.251C175.149 116.964 179.877 126.256 185.623 135.068C188.987 140.222 192.597 145.275 196.579 149.957C198.852 152.629 202.125 154.44 204.889 156.714C208.944 160.055 208.671 163.877 204.098 166.44C199.579 168.976 194.524 169.692 189.469 170.081C186.196 170.326 182.859 170.289 179.595 169.954C176.549 169.646 174.076 167.871 172.13 165.544C168.966 161.74 165.039 159.114 160.465 157.221C145.527 151.035 130.834 144.397 116.751 136.354C109.85 132.415 102.313 129.453 94.839 126.655C78.1551 120.415 63.9533 111.223 54.9977 95.3284C52.0337 90.0213 49.988 84.3791 48.8333 78.4109C48.6969 77.7045 48.406 77.0343 48.1877 76.346C48.1877 72.832 48.1877 69.3181 48.1877 65.8042Z" fill="#F2ECE9"/>
<path d="M393.239 65.8042C392.221 64.4729 391.494 62.6797 389.275 63.1325C386.993 63.6034 385.711 65.2336 385.275 67.2985C384.62 70.3687 384.484 73.5566 383.793 76.6177C381.82 85.4206 376.828 92.4575 370.346 98.5163C368.145 100.572 365.663 102.32 363.29 104.186C362.663 104.675 361.944 105.046 361.263 105.472C363.672 100.771 366.209 96.2884 368.336 91.6062C372.5 82.441 375.028 72.7505 377.155 62.9514C378.61 56.2496 380.474 49.6111 381.592 42.855C383.493 31.3622 383.493 19.8242 381.056 8.36772C380.938 7.82433 380.91 7.15414 380.574 6.78283C379.892 6.00397 379.056 4.89907 378.237 4.84473C377.383 4.79039 375.901 5.65982 375.664 6.42962C374.81 9.12847 374.101 11.936 373.828 14.7526C373.109 22.1336 372.719 29.5419 372.009 36.9229C371.846 38.6799 371.155 40.4731 370.355 42.0761C369.136 44.5032 367.4 44.9742 365.163 43.4346C363.09 42.0127 361.19 40.3282 359.326 38.6346C349.688 29.8679 343.751 18.8823 339.905 6.62887C339.405 5.04398 338.596 3.54059 337.778 2.09155C336.969 0.669675 335.696 -0.371825 333.959 0.126284C332.214 0.633449 332.114 2.26362 332.114 3.76701C332.123 9.11941 332.823 14.3722 334.568 19.462C337.587 28.2558 341.333 36.6965 347.07 44.0957C349.17 46.8036 351.607 49.2941 354.18 51.5583C358.099 54.9997 359.344 59.3922 359.608 64.3099C360.362 78.0758 354.434 89.2968 346.061 99.5488C343.897 102.202 341.424 104.602 338.733 106.921C339.333 104.195 340.024 101.487 340.515 98.7337C341.542 92.9737 342.06 87.1595 340.724 81.4086C340.269 79.4524 339.133 77.4871 337.823 75.9475C336.032 73.8464 333.414 74.6252 333.059 77.3603C332.677 80.3218 332.85 83.3557 332.741 86.3534C332.132 102.076 324.913 114.157 312.084 122.996C303.674 128.792 294.072 131.917 284.198 133.964C278.307 135.186 273.233 137.767 268.242 140.819C266.833 141.68 265.387 142.495 263.96 143.328C263.805 143.21 263.641 143.093 263.487 142.984C264.341 140.575 265.078 138.12 266.069 135.766C267.724 131.826 269.469 127.923 271.279 124.056C274.288 117.653 274.861 110.987 273.415 104.159C273.206 103.153 272.015 101.759 271.142 101.659C270.242 101.55 269.006 102.655 268.26 103.516C267.669 104.195 267.424 105.309 267.333 106.251C266.278 116.964 261.55 126.256 255.804 135.068C252.44 140.222 248.83 145.275 244.848 149.957C242.575 152.629 239.302 154.44 236.538 156.714C232.483 160.055 232.756 163.877 237.329 166.44C241.848 168.976 246.903 169.692 251.958 170.081C255.231 170.326 258.568 170.289 261.832 169.954C264.878 169.646 267.351 167.871 269.297 165.544C272.461 161.74 276.388 159.114 280.962 157.221C295.9 151.035 310.593 144.397 324.676 136.354C331.577 132.415 339.114 129.453 346.588 126.655C363.272 120.415 377.474 111.223 386.429 95.3284C389.393 90.0213 391.439 84.3791 392.594 78.4109C392.73 77.7045 393.021 77.0343 393.239 76.346C393.239 72.832 393.239 69.3181 393.239 65.8042Z" fill="#F2ECE9"/>
<path fill-rule="evenodd" clip-rule="evenodd" d="M441 129.227L380.947 131.265C385.229 124.853 389.257 117.408 393.221 108.678C371.391 118.45 374.919 134.57 358.635 148.789C364.763 138.003 365.545 136.88 364.663 124.771C344.715 136.065 355.489 150.673 337.333 159.947C339.024 152.656 352.062 143.926 346.106 132.696C328.122 147.974 335.278 162.129 303.674 170.869C337.114 166.612 357.853 159.476 374.201 140.24L431.471 138.293V320.021L373.737 317.938C358.853 305.666 340.051 300.287 312.811 296.818C344.415 305.557 337.26 319.713 355.253 334.991C361.199 323.752 348.161 315.022 346.47 307.731C364.627 316.996 353.853 331.613 373.801 342.907C374.683 330.798 373.901 329.675 367.773 318.889C384.057 333.116 380.529 349.237 402.359 359C396.276 345.605 390.03 335.199 382.965 327.003L440.991 329.095V129.227H441Z" fill="#F2ECE9"/>
<path fill-rule="evenodd" clip-rule="evenodd" d="M-4.57764e-05 129.227L60.0528 131.265C55.7705 124.853 51.7427 117.408 47.7786 108.678C69.6086 118.45 66.0809 134.57 82.3647 148.789C76.2367 138.003 75.4547 136.88 76.3367 124.771C96.2846 136.065 85.5105 150.673 103.667 159.947C101.976 152.656 88.9382 143.926 94.8935 132.696C112.878 147.974 105.722 162.129 137.326 170.869C103.886 166.612 83.1466 159.476 66.7991 140.24L9.5284 138.293V320.021L67.2628 317.938C82.1465 305.666 100.949 300.287 128.189 296.818C96.5846 305.557 103.74 319.713 85.7469 334.991C79.8007 323.752 92.8387 315.022 94.5298 307.731C76.373 316.996 87.1471 331.613 67.1992 342.907C66.3173 330.798 67.0992 329.675 73.2272 318.889C56.9434 333.116 60.4711 349.237 38.6411 359C44.7237 345.605 50.9699 335.199 58.0344 327.003L0.00904846 329.095V129.227H-4.57764e-05Z" fill="#F2ECE9"/>
<path d="M39.5956 192.559C40.1593 192.586 40.9048 192.614 41.8231 192.641C42.7414 192.668 43.6506 192.677 44.5416 192.677C45.8145 192.677 47.0238 192.668 48.1876 192.641C49.3513 192.614 50.1787 192.605 50.6606 192.605C53.9337 192.605 56.3795 193.347 57.9979 194.823C59.6163 196.3 60.4345 198.22 60.4345 200.556C60.4345 201.525 60.2709 202.54 59.9436 203.608C59.6163 204.668 59.0616 205.655 58.2615 206.552C57.4614 207.457 56.3795 208.191 54.9975 208.752C53.6155 209.314 51.8789 209.604 49.7696 209.604H45.8782V208.798H49.3604C51.2788 208.798 52.7427 208.435 53.761 207.711C54.7702 206.986 55.4612 206.026 55.8249 204.84C56.1886 203.653 56.3704 202.377 56.3704 201C56.3704 198.446 55.8612 196.535 54.852 195.267C53.8428 193.999 52.0971 193.365 49.6423 193.365C48.3967 193.365 47.5875 193.592 47.2056 194.054C46.8419 194.515 46.651 195.448 46.651 196.843V216.876C46.651 217.845 46.751 218.57 46.951 219.059C47.1511 219.548 47.5511 219.865 48.1512 220.028C48.7422 220.191 49.615 220.299 50.7424 220.354V221.16C50.0423 221.105 49.1513 221.069 48.0694 221.06C46.9874 221.051 45.8964 221.042 44.7871 221.042C43.7325 221.042 42.7414 221.051 41.8231 221.06C40.9048 221.078 40.1593 221.105 39.5956 221.16V220.354C40.5139 220.299 41.214 220.191 41.6867 220.028C42.1595 219.865 42.4778 219.539 42.6414 219.059C42.8051 218.57 42.8869 217.845 42.8869 216.876V196.843C42.8869 195.847 42.8051 195.113 42.6414 194.642C42.4778 194.171 42.1595 193.845 41.6867 193.673C41.214 193.501 40.5139 193.401 39.5956 193.374V192.559Z" fill="#F2ECE9"/>
<path d="M90.4382 191.998C93.0022 191.998 95.257 192.577 97.1845 193.737C99.1211 194.896 100.621 196.553 101.685 198.727C102.749 200.891 103.285 203.527 103.285 206.624C103.285 209.64 102.74 212.275 101.64 214.539C100.539 216.804 99.0211 218.561 97.0754 219.828C95.1297 221.096 92.9022 221.73 90.3837 221.73C87.8106 221.73 85.5649 221.151 83.6374 219.991C81.7008 218.832 80.2006 217.166 79.1368 214.983C78.0731 212.801 77.5366 210.174 77.5366 207.104C77.5366 204.088 78.0912 201.453 79.2005 199.189C80.3097 196.925 81.8281 195.168 83.7647 193.9C85.7013 192.632 87.9288 191.998 90.4382 191.998ZM90.2837 192.722C88.5289 192.722 87.0014 193.329 85.7013 194.543C84.4011 195.756 83.3919 197.423 82.6827 199.551C81.9644 201.679 81.6099 204.143 81.6099 206.941C81.6099 209.794 82.0099 212.275 82.81 214.395C83.6101 216.505 84.6921 218.135 86.0559 219.285C87.4197 220.426 88.9289 220.997 90.5746 220.997C92.3294 220.997 93.8568 220.39 95.157 219.176C96.4572 217.963 97.4573 216.287 98.1756 214.15C98.8938 212.013 99.2484 209.549 99.2484 206.778C99.2484 203.898 98.8484 201.407 98.0483 199.306C97.2482 197.205 96.1753 195.584 94.8206 194.443C93.4659 193.302 91.9566 192.722 90.2837 192.722Z" fill="#F2ECE9"/>
<path d="M145.545 192.559V193.365C144.627 193.392 143.927 193.528 143.454 193.773C142.981 194.017 142.663 194.407 142.499 194.941C142.336 195.475 142.254 196.245 142.254 197.241V209.395C142.254 211.279 142.136 212.918 141.89 214.322C141.645 215.726 141.217 216.93 140.59 217.954C139.917 219.086 138.926 219.991 137.635 220.68C136.344 221.368 134.853 221.712 133.171 221.712C131.871 221.712 130.634 221.558 129.461 221.25C128.288 220.942 127.252 220.372 126.361 219.53C125.579 218.778 124.961 217.981 124.515 217.148C124.07 216.315 123.761 215.291 123.606 214.078C123.442 212.864 123.361 211.342 123.361 209.513V196.834C123.361 195.838 123.279 195.104 123.115 194.633C122.951 194.162 122.633 193.836 122.16 193.664C121.688 193.492 120.988 193.392 120.069 193.365V192.559C120.633 192.586 121.378 192.614 122.297 192.641C123.215 192.668 124.206 192.677 125.252 192.677C126.197 192.677 127.134 192.668 128.07 192.641C129.007 192.614 129.78 192.586 130.398 192.559V193.365C129.479 193.392 128.779 193.492 128.307 193.664C127.834 193.836 127.516 194.162 127.352 194.633C127.188 195.104 127.106 195.838 127.106 196.834V210.201C127.106 212.031 127.243 213.715 127.516 215.246C127.788 216.776 128.37 218.008 129.279 218.923C130.189 219.837 131.598 220.299 133.516 220.299C135.571 220.299 137.162 219.847 138.281 218.95C139.399 218.044 140.19 216.804 140.635 215.21C141.081 213.625 141.308 211.832 141.308 209.839V197.251C141.308 196.254 141.19 195.484 140.963 194.95C140.735 194.416 140.344 194.017 139.808 193.782C139.262 193.537 138.535 193.401 137.617 193.374V192.559C138.108 192.586 138.744 192.614 139.544 192.641C140.344 192.668 141.081 192.677 141.754 192.677C142.454 192.677 143.154 192.668 143.845 192.641C144.554 192.614 145.109 192.586 145.545 192.559Z" fill="#F2ECE9"/>
<path d="M162.129 192.559C162.693 192.586 163.438 192.614 164.357 192.641C165.275 192.668 166.184 192.677 167.075 192.677C168.348 192.677 169.566 192.668 170.721 192.641C171.885 192.614 172.703 192.605 173.194 192.605C176.467 192.605 178.913 193.275 180.531 194.624C182.15 195.974 182.968 197.64 182.968 199.632C182.968 200.438 182.804 201.299 182.477 202.213C182.15 203.128 181.595 203.989 180.795 204.795C179.995 205.601 178.913 206.271 177.531 206.796C176.149 207.321 174.412 207.584 172.303 207.584H168.412V206.778H171.894C173.812 206.778 175.276 206.479 176.294 205.872C177.304 205.266 177.995 204.46 178.358 203.445C178.722 202.431 178.904 201.308 178.904 200.076C178.904 197.948 178.395 196.3 177.385 195.131C176.367 193.963 174.631 193.374 172.176 193.374C170.93 193.374 170.121 193.601 169.739 194.063C169.357 194.525 169.175 195.448 169.175 196.852V216.885C169.175 217.854 169.257 218.579 169.421 219.068C169.584 219.557 169.903 219.874 170.375 220.037C170.848 220.2 171.548 220.308 172.467 220.363V221.169C171.848 221.114 171.066 221.078 170.139 221.069C169.203 221.06 168.266 221.051 167.321 221.051C166.266 221.051 165.275 221.06 164.357 221.069C163.438 221.087 162.693 221.114 162.129 221.169V220.363C163.047 220.308 163.747 220.2 164.22 220.037C164.693 219.874 165.011 219.548 165.175 219.068C165.339 218.579 165.42 217.854 165.42 216.885V196.843C165.42 195.847 165.339 195.113 165.175 194.642C165.011 194.171 164.693 193.845 164.22 193.673C163.747 193.501 163.047 193.401 162.129 193.374V192.559ZM168.575 206.905C170.039 206.959 171.185 207.023 172.021 207.086C172.858 207.149 173.54 207.213 174.067 207.267C174.594 207.321 175.103 207.385 175.585 207.466C177.395 207.765 178.704 208.309 179.495 209.106C180.286 209.902 180.877 211.134 181.259 212.801L182.268 216.921C182.541 218.108 182.813 218.959 183.095 219.484C183.377 220.01 183.823 220.254 184.414 220.236C184.868 220.209 185.259 220.064 185.568 219.792C185.877 219.521 186.214 219.158 186.559 218.705L187.168 219.149C186.596 219.982 186.014 220.625 185.405 221.069C184.795 221.513 183.941 221.739 182.832 221.739C181.831 221.739 180.95 221.441 180.195 220.852C179.44 220.263 178.867 219.104 178.495 217.383L177.604 213.344C177.358 212.185 177.085 211.179 176.776 210.337C176.467 209.486 176.031 208.825 175.476 208.336C174.921 207.847 174.103 207.611 173.021 207.611H168.639L168.575 206.905Z" fill="#F2ECE9"/>
<path d="M225.455 192.559V193.365C224.937 193.474 224.391 193.782 223.809 194.298C223.228 194.814 222.709 195.675 222.246 196.879L212.717 221.35C212.663 221.35 212.608 221.35 212.553 221.35C212.499 221.35 212.444 221.35 212.39 221.35C212.335 221.35 212.281 221.35 212.226 221.35C212.172 221.35 212.117 221.35 212.062 221.35L202.189 195.955C201.779 194.932 201.325 194.253 200.807 193.918C200.297 193.583 199.825 193.401 199.388 193.374V192.559C199.925 192.586 200.597 192.614 201.398 192.641C202.198 192.668 202.97 192.677 203.725 192.677C204.78 192.677 205.762 192.668 206.689 192.641C207.607 192.614 208.353 192.586 208.917 192.559V193.365C207.535 193.42 206.671 193.655 206.298 194.072C205.925 194.488 206.007 195.385 206.525 196.752L214.063 216.668L213.417 217.356L220.473 199.098C221.036 197.64 221.309 196.508 221.282 195.684C221.255 194.86 220.945 194.28 220.345 193.927C219.754 193.574 218.882 193.392 217.754 193.365V192.559C218.536 192.586 219.336 192.614 220.145 192.641C220.954 192.668 221.709 192.677 222.418 192.677C223.118 192.677 223.7 192.668 224.164 192.641C224.628 192.614 225.055 192.586 225.455 192.559Z" fill="#F2ECE9"/>
<path d="M253.313 191.998C255.877 191.998 258.132 192.577 260.059 193.737C261.996 194.896 263.496 196.553 264.56 198.727C265.624 200.891 266.16 203.527 266.16 206.624C266.16 209.64 265.614 212.275 264.514 214.539C263.414 216.804 261.896 218.561 259.95 219.828C258.004 221.096 255.777 221.73 253.258 221.73C250.685 221.73 248.44 221.151 246.512 219.991C244.576 218.832 243.075 217.166 242.012 214.983C240.948 212.801 240.411 210.174 240.411 207.104C240.411 204.088 240.966 201.453 242.075 199.189C243.184 196.925 244.703 195.168 246.639 193.9C248.576 192.632 250.794 191.998 253.313 191.998ZM253.149 192.722C251.395 192.722 249.867 193.329 248.567 194.543C247.267 195.756 246.258 197.423 245.548 199.551C244.83 201.679 244.476 204.143 244.476 206.941C244.476 209.794 244.876 212.275 245.676 214.395C246.476 216.505 247.558 218.135 248.922 219.285C250.285 220.426 251.795 220.997 253.44 220.997C255.195 220.997 256.722 220.39 258.023 219.176C259.323 217.963 260.323 216.287 261.041 214.15C261.759 212.013 262.114 209.549 262.114 206.778C262.114 203.898 261.714 201.407 260.914 199.306C260.114 197.205 259.041 195.584 257.686 194.443C256.331 193.302 254.822 192.722 253.149 192.722Z" fill="#F2ECE9"/>
<path d="M293.818 192.559V193.365C292.9 193.392 292.2 193.492 291.727 193.664C291.254 193.836 290.936 194.162 290.772 194.633C290.609 195.104 290.527 195.838 290.527 196.834V216.867C290.527 217.836 290.609 218.561 290.772 219.05C290.936 219.539 291.254 219.856 291.727 220.019C292.2 220.182 292.9 220.29 293.818 220.345V221.151C293.2 221.096 292.418 221.06 291.491 221.051C290.554 221.042 289.618 221.033 288.672 221.033C287.617 221.033 286.626 221.042 285.708 221.051C284.79 221.069 284.044 221.096 283.48 221.151V220.345C284.399 220.29 285.099 220.182 285.572 220.019C286.044 219.856 286.363 219.53 286.526 219.05C286.69 218.561 286.772 217.836 286.772 216.867V196.843C286.772 195.847 286.69 195.113 286.526 194.642C286.363 194.171 286.044 193.845 285.572 193.673C285.099 193.501 284.399 193.401 283.48 193.374V192.559C284.044 192.586 284.79 192.614 285.708 192.641C286.626 192.668 287.617 192.677 288.672 192.677C289.618 192.677 290.554 192.668 291.491 192.641C292.418 192.614 293.2 192.586 293.818 192.559Z" fill="#F2ECE9"/>
<path d="M311.011 192.559C311.575 192.586 312.32 192.614 313.239 192.641C314.157 192.668 315.066 192.677 315.957 192.677C317.23 192.677 318.448 192.668 319.603 192.641C320.767 192.614 321.585 192.605 322.076 192.605C325.349 192.605 327.795 193.275 329.413 194.624C331.032 195.974 331.85 197.64 331.85 199.632C331.85 200.438 331.686 201.299 331.359 202.213C331.032 203.128 330.477 203.989 329.677 204.795C328.877 205.601 327.795 206.271 326.413 206.796C325.031 207.321 323.294 207.584 321.185 207.584H317.294V206.778H320.776C322.694 206.778 324.158 206.479 325.176 205.872C326.186 205.266 326.877 204.46 327.24 203.445C327.604 202.431 327.786 201.308 327.786 200.076C327.786 197.948 327.277 196.3 326.267 195.131C325.249 193.963 323.513 193.374 321.058 193.374C319.812 193.374 319.003 193.601 318.621 194.063C318.239 194.525 318.057 195.448 318.057 196.852V216.885C318.057 217.854 318.139 218.579 318.303 219.068C318.466 219.557 318.785 219.874 319.257 220.037C319.73 220.2 320.43 220.308 321.349 220.363V221.169C320.73 221.114 319.948 221.078 319.021 221.069C318.085 221.06 317.148 221.051 316.203 221.051C315.148 221.051 314.157 221.06 313.239 221.069C312.32 221.087 311.575 221.114 311.011 221.169V220.363C311.929 220.308 312.629 220.2 313.102 220.037C313.575 219.874 313.893 219.548 314.057 219.068C314.22 218.579 314.302 217.854 314.302 216.885V196.843C314.302 195.847 314.22 195.113 314.057 194.642C313.893 194.171 313.575 193.845 313.102 193.673C312.629 193.501 311.929 193.401 311.011 193.374V192.559ZM317.457 206.905C318.921 206.959 320.067 207.023 320.903 207.086C321.74 207.149 322.422 207.213 322.949 207.267C323.476 207.321 323.985 207.385 324.467 207.466C326.277 207.765 327.586 208.309 328.377 209.106C329.168 209.902 329.759 211.134 330.141 212.801L331.15 216.921C331.423 218.108 331.695 218.959 331.977 219.484C332.259 220.01 332.705 220.254 333.296 220.236C333.75 220.209 334.141 220.064 334.45 219.792C334.759 219.521 335.096 219.158 335.441 218.705L336.05 219.149C335.478 219.982 334.896 220.625 334.287 221.069C333.677 221.513 332.823 221.739 331.714 221.739C330.713 221.739 329.832 221.441 329.077 220.852C328.322 220.263 327.749 219.104 327.377 217.383L326.486 213.344C326.24 212.185 325.967 211.179 325.658 210.337C325.349 209.486 324.913 208.825 324.358 208.336C323.803 207.847 322.985 207.611 321.903 207.611H317.521L317.457 206.905Z" fill="#F2ECE9"/>
<path d="M361.408 192.559V193.365C360.49 193.392 359.79 193.492 359.317 193.664C358.844 193.836 358.526 194.162 358.362 194.633C358.199 195.104 358.117 195.838 358.117 196.834V216.867C358.117 217.836 358.199 218.561 358.362 219.05C358.526 219.539 358.844 219.856 359.317 220.019C359.79 220.182 360.49 220.29 361.408 220.345V221.151C360.79 221.096 360.008 221.06 359.081 221.051C358.144 221.042 357.208 221.033 356.262 221.033C355.207 221.033 354.216 221.042 353.298 221.051C352.38 221.069 351.634 221.096 351.071 221.151V220.345C351.989 220.29 352.689 220.182 353.162 220.019C353.635 219.856 353.953 219.53 354.116 219.05C354.28 218.561 354.362 217.836 354.362 216.867V196.843C354.362 195.847 354.28 195.113 354.116 194.642C353.953 194.171 353.635 193.845 353.162 193.673C352.689 193.501 351.989 193.401 351.071 193.374V192.559C351.634 192.586 352.38 192.614 353.298 192.641C354.216 192.668 355.207 192.677 356.262 192.677C357.208 192.677 358.144 192.668 359.081 192.641C360.008 192.614 360.781 192.586 361.408 192.559Z" fill="#F2ECE9"/>
<path d="M398.831 192.559C398.722 193.501 398.649 194.416 398.604 195.303C398.567 196.191 398.54 196.861 398.54 197.323C398.54 197.812 398.549 198.274 398.576 198.718C398.604 199.161 398.631 199.533 398.658 199.832H397.722C397.558 198.247 397.331 196.988 397.031 196.055C396.731 195.122 396.231 194.47 395.512 194.081C394.794 193.691 393.721 193.492 392.294 193.492H388.93C388.011 193.492 387.311 193.565 386.839 193.718C386.366 193.863 386.048 194.18 385.884 194.651C385.72 195.122 385.638 195.856 385.638 196.852V216.885C385.638 217.854 385.72 218.579 385.884 219.068C386.048 219.557 386.366 219.874 386.839 220.019C387.311 220.164 388.011 220.245 388.93 220.245H391.894C393.594 220.245 394.885 220.019 395.767 219.557C396.649 219.104 397.285 218.352 397.676 217.32C398.067 216.287 398.358 214.875 398.549 213.099H399.486C399.404 213.824 399.367 214.793 399.367 216.007C399.367 216.523 399.386 217.256 399.431 218.207C399.467 219.167 399.549 220.154 399.658 221.178C398.276 221.124 396.722 221.087 394.994 221.078C393.267 221.069 391.721 221.06 390.375 221.06C389.566 221.06 388.493 221.06 387.148 221.06C385.802 221.06 384.384 221.069 382.874 221.078C381.356 221.096 379.938 221.124 378.619 221.178V220.372C379.538 220.317 380.238 220.209 380.711 220.046C381.183 219.883 381.502 219.557 381.665 219.077C381.829 218.588 381.911 217.863 381.911 216.894V196.843C381.911 195.847 381.829 195.113 381.665 194.642C381.502 194.171 381.183 193.845 380.711 193.673C380.238 193.501 379.538 193.401 378.619 193.374V192.559C379.947 192.586 381.365 192.614 382.874 192.641C384.384 192.668 385.811 192.677 387.148 192.677C388.484 192.677 389.557 192.677 390.375 192.677C391.621 192.677 393.03 192.668 394.612 192.659C396.176 192.65 397.585 192.614 398.831 192.559ZM391.857 206.38V207.186H384.438V206.38H391.857ZM393.03 201.045C392.921 202.576 392.876 203.753 392.885 204.559C392.894 205.365 392.903 206.108 392.903 206.778C392.903 207.448 392.912 208.191 392.939 208.997C392.967 209.803 393.03 210.971 393.139 212.511H392.203C392.094 211.65 391.967 210.808 391.821 209.984C391.676 209.16 391.348 208.49 390.848 207.964C390.348 207.439 389.503 207.176 388.312 207.176V206.37C389.503 206.37 390.33 206.063 390.803 205.438C391.276 204.822 391.576 204.088 391.712 203.255C391.848 202.422 391.967 201.679 392.076 201.036H393.03V201.045Z" fill="#F2ECE9"/>
<path d="M59.1618 229.111V230.379C57.7162 230.425 56.6251 230.579 55.8796 230.859C55.1341 231.131 54.634 231.647 54.3794 232.381C54.1248 233.123 53.9976 234.274 53.9976 235.84V268.082C53.9976 269.395 54.0885 270.364 54.2885 270.998C54.4794 271.632 54.8613 272.057 55.4341 272.266C56.0069 272.474 56.8706 272.583 58.0162 272.583H61.1348C63.0896 272.583 64.8625 271.994 66.4536 270.808C68.0447 269.621 69.3813 267.964 70.4632 265.826C71.5452 263.689 72.2998 261.226 72.7271 258.436H74.191C74.0637 259.876 74 261.733 74 264.024C74 265.002 74.0182 266.415 74.0637 268.281C74.1091 270.146 74.2364 272.066 74.4455 274.059C72.2816 273.977 69.8359 273.923 67.1174 273.905C64.3988 273.887 61.9804 273.869 59.8528 273.869C58.4072 273.869 56.4979 273.869 54.1157 273.869C51.7336 273.869 49.206 273.878 46.533 273.905C43.8599 273.932 41.3869 273.959 39.0957 274.05V272.782C40.4504 272.7 41.4778 272.528 42.1506 272.275C42.8325 272.021 43.2871 271.514 43.5235 270.753C43.7599 269.992 43.8781 268.851 43.8781 267.33V235.84C43.8781 234.274 43.7599 233.123 43.5235 232.381C43.2871 231.638 42.8234 231.131 42.1234 230.859C41.4233 230.579 40.414 230.425 39.0957 230.379V229.111C40.1595 229.157 41.5869 229.193 43.3962 229.238C45.2056 229.283 47.124 229.302 49.1606 229.302C51.0335 229.302 52.8701 229.283 54.6704 229.238C56.4797 229.202 57.9799 229.157 59.1618 229.111Z" fill="#68B966"/>
<path d="M94.4026 228.985L109.886 268.716C110.477 270.237 111.15 271.288 111.896 271.858C112.641 272.429 113.305 272.737 113.905 272.782V274.05C112.632 273.968 111.132 273.914 109.414 273.896C107.695 273.878 105.959 273.86 104.222 273.86C102.267 273.86 100.422 273.869 98.6758 273.896C96.9302 273.914 95.5573 273.968 94.539 274.05V272.782C96.7029 272.7 98.0758 272.329 98.6486 271.668C99.2214 271.016 99.085 269.603 98.2303 267.448L87.3926 237.932L88.5382 236.284L78.8552 261.416C77.6642 264.55 77.0823 266.913 77.1004 268.525C77.1186 270.137 77.646 271.224 78.6643 271.795C79.6826 272.365 81.0464 272.691 82.7375 272.782V274.05C81.3373 273.968 80.0008 273.914 78.7279 273.896C77.455 273.878 76.1549 273.86 74.8365 273.86C73.9001 273.86 73.0181 273.869 72.1908 273.896C71.3634 273.914 70.6269 273.968 69.9905 274.05V272.782C70.8815 272.61 71.7998 272.039 72.7272 271.07C73.6637 270.101 74.5729 268.444 75.4639 266.116L89.993 228.985C90.6749 229.03 91.4022 229.048 92.1932 229.048C92.9842 229.048 93.7207 229.03 94.4026 228.985ZM98.8577 255.765V257.033H79.8735L80.51 255.765H98.8577Z" fill="#68B966"/>
<path d="M133.198 228.224C135.999 228.224 138.308 228.64 140.108 229.465C141.917 230.289 143.518 231.249 144.918 232.354C145.763 232.988 146.418 233.06 146.864 232.58C147.309 232.091 147.618 230.941 147.791 229.12H149.255C149.173 230.769 149.1 232.77 149.064 235.116C149.018 237.461 149 240.586 149 244.48H147.536C147.327 242.533 147.045 240.876 146.709 239.499C146.373 238.123 145.9 236.909 145.309 235.849C144.709 234.79 143.863 233.839 142.763 232.997C141.699 231.937 140.472 231.158 139.072 230.651C137.672 230.144 136.208 229.89 134.68 229.89C132.389 229.89 130.434 230.497 128.816 231.702C127.197 232.906 125.897 234.545 124.897 236.619C123.897 238.693 123.17 241.03 122.697 243.629C122.233 246.228 121.997 248.927 121.997 251.716C121.997 254.551 122.242 257.268 122.733 259.867C123.224 262.467 123.988 264.785 125.024 266.814C126.061 268.842 127.416 270.454 129.07 271.641C130.725 272.827 132.68 273.416 134.935 273.416C136.335 273.416 137.744 273.153 139.172 272.619C140.59 272.094 141.817 271.315 142.836 270.3C144.491 269.033 145.618 267.457 146.209 265.573C146.8 263.689 147.245 261.181 147.545 258.056H149.009C149.009 262.077 149.027 265.319 149.073 267.801C149.118 270.273 149.182 272.356 149.264 274.05H147.8C147.627 272.229 147.345 271.088 146.936 270.626C146.536 270.165 145.863 270.228 144.927 270.817C143.354 271.922 141.69 272.882 139.926 273.706C138.162 274.53 135.899 274.946 133.144 274.946C128.643 274.946 124.697 274.041 121.324 272.22C117.951 270.4 115.323 267.774 113.459 264.35C111.586 260.927 110.659 256.797 110.659 251.97C110.659 247.233 111.623 243.086 113.559 239.526C115.496 235.976 118.142 233.205 121.524 231.212C124.888 229.22 128.779 228.224 133.198 228.224Z" fill="#68B966"/>
<path d="M179.713 229.111C188.078 229.111 194.306 231.004 198.379 234.79C202.452 238.575 204.498 244 204.498 251.064C204.498 255.674 203.498 259.704 201.507 263.155C199.506 266.605 196.615 269.277 192.806 271.188C189.005 273.09 184.45 274.041 179.14 274.041C178.122 274.041 176.667 274.005 174.776 273.941C172.885 273.878 171.239 273.851 169.839 273.851C167.966 273.851 166.13 273.86 164.329 273.887C162.52 273.905 161.093 273.959 160.029 274.041V272.773C161.384 272.691 162.411 272.519 163.084 272.266C163.766 272.012 164.22 271.505 164.457 270.744C164.693 269.983 164.811 268.842 164.811 267.321V235.84C164.811 234.274 164.693 233.123 164.457 232.381C164.22 231.638 163.757 231.131 163.056 230.859C162.356 230.588 161.347 230.425 160.029 230.379V229.111C161.093 229.157 162.52 229.202 164.329 229.265C166.13 229.329 167.93 229.338 169.712 229.302C171.239 229.256 172.967 229.22 174.903 229.175C176.831 229.129 178.44 229.111 179.713 229.111ZM179.649 230.252C177.695 230.252 176.422 230.615 175.822 231.33C175.231 232.046 174.931 233.513 174.931 235.714V267.448C174.931 269.648 175.24 271.106 175.858 271.822C176.476 272.537 177.758 272.9 179.713 272.9C183.277 272.9 186.096 272.066 188.16 270.391C190.223 268.725 191.696 266.279 192.587 263.064C193.478 259.849 193.924 255.937 193.924 251.327C193.924 244.218 192.815 238.929 190.614 235.46C188.396 231.991 184.741 230.252 179.649 230.252Z" fill="#68B966"/>
<path d="M244.767 229.111V230.379C243.403 230.551 242.375 230.896 241.675 231.43C240.975 231.955 240.521 232.797 240.302 233.939C240.093 235.08 239.984 236.692 239.984 238.766V255.575C239.984 258.328 239.793 260.845 239.411 263.128C239.03 265.41 238.348 267.384 237.375 269.033C236.275 270.853 234.656 272.293 232.529 273.352C230.401 274.412 227.71 274.937 224.437 274.937C222.482 274.937 220.491 274.711 218.445 274.267C216.399 273.823 214.581 272.99 212.963 271.759C211.599 270.617 210.562 269.322 209.844 267.882C209.126 266.442 208.635 264.74 208.38 262.774C208.126 260.809 207.998 258.473 207.998 255.765V235.84C207.998 234.274 207.88 233.123 207.653 232.381C207.417 231.638 206.962 231.131 206.28 230.859C205.598 230.588 204.58 230.425 203.225 230.379V229.111C204.289 229.157 205.716 229.193 207.526 229.238C209.335 229.283 211.208 229.302 213.163 229.302C215.117 229.302 217 229.283 218.8 229.238C220.6 229.193 222.1 229.157 223.291 229.111V230.379C221.846 230.425 220.755 230.579 220.009 230.859C219.263 231.131 218.763 231.647 218.509 232.381C218.254 233.123 218.127 234.274 218.127 235.84V259.768C218.127 262.602 218.382 264.984 218.891 266.904C219.4 268.833 220.3 270.282 221.6 271.251C222.891 272.229 224.673 272.709 226.919 272.709C229.892 272.709 232.22 272.012 233.893 270.617C235.565 269.223 236.757 267.285 237.457 264.812C238.157 262.34 238.511 259.496 238.511 256.272V239.517C238.511 237.19 238.366 235.406 238.066 234.156C237.766 232.906 237.184 232.009 236.311 231.457C235.438 230.905 234.111 230.551 232.329 230.379V229.111C233.138 229.157 234.202 229.193 235.511 229.238C236.829 229.283 238.057 229.302 239.202 229.302C240.221 229.302 241.23 229.283 242.23 229.238C243.239 229.202 244.085 229.157 244.767 229.111Z" fill="#68B966"/>
<path d="M276.234 228.224C279.035 228.224 281.344 228.64 283.144 229.465C284.953 230.289 286.554 231.249 287.954 232.354C288.799 232.988 289.454 233.06 289.9 232.58C290.345 232.091 290.654 230.941 290.827 229.12H292.291C292.209 230.769 292.136 232.77 292.1 235.116C292.054 237.461 292.036 240.586 292.036 244.48H290.572C290.363 242.533 290.081 240.876 289.745 239.499C289.409 238.123 288.936 236.909 288.345 235.849C287.745 234.79 286.899 233.839 285.799 232.997C284.735 231.937 283.508 231.158 282.108 230.651C280.707 230.144 279.244 229.89 277.716 229.89C275.425 229.89 273.47 230.497 271.852 231.702C270.233 232.906 268.933 234.545 267.933 236.619C266.933 238.693 266.206 241.03 265.733 243.629C265.269 246.228 265.033 248.927 265.033 251.716C265.033 254.551 265.278 257.268 265.769 259.867C266.26 262.467 267.024 264.785 268.06 266.814C269.097 268.842 270.452 270.454 272.106 271.641C273.761 272.827 275.716 273.416 277.971 273.416C279.371 273.416 280.78 273.153 282.208 272.619C283.626 272.094 284.853 271.315 285.872 270.3C287.527 269.033 288.654 267.457 289.245 265.573C289.836 263.689 290.281 261.181 290.581 258.056H292.045C292.045 262.077 292.063 265.319 292.109 267.801C292.154 270.273 292.218 272.356 292.3 274.05H290.836C290.663 272.229 290.381 271.088 289.972 270.626C289.572 270.165 288.899 270.228 287.963 270.817C286.39 271.922 284.726 272.882 282.962 273.706C281.198 274.53 278.935 274.946 276.18 274.946C271.679 274.946 267.733 274.041 264.36 272.22C260.987 270.4 258.359 267.774 256.495 264.35C254.622 260.927 253.695 256.797 253.695 251.97C253.695 247.233 254.659 243.086 256.595 239.526C258.532 235.976 261.178 233.205 264.56 231.212C267.924 229.22 271.815 228.224 276.234 228.224Z" fill="#68B966"/>
<path d="M327.204 229.111C327.031 230.977 326.913 232.77 326.849 234.509C326.786 236.248 326.759 237.579 326.759 238.512C326.759 239.354 326.777 240.16 326.822 240.921C326.868 241.682 326.904 242.316 326.949 242.823H325.486C325.058 239.735 324.404 237.289 323.513 235.496C322.622 233.703 321.467 232.426 320.04 231.692C318.612 230.95 316.948 230.579 315.039 230.579H312.429C311.157 230.579 310.211 230.687 309.593 230.896C308.975 231.104 308.565 231.52 308.347 232.136C308.138 232.752 308.029 233.73 308.029 235.089V268.091C308.029 269.404 308.138 270.373 308.347 271.007C308.556 271.641 308.975 272.066 309.593 272.275C310.211 272.483 311.157 272.592 312.429 272.592H315.548C317.457 272.592 319.148 272.175 320.612 271.351C322.076 270.527 323.331 269.123 324.367 267.131C325.404 265.138 326.204 262.458 326.759 259.07H328.222C328.095 260.429 328.031 262.204 328.031 264.405C328.031 265.383 328.05 266.75 328.095 268.525C328.141 270.3 328.268 272.139 328.477 274.05C326.313 273.968 323.867 273.914 321.149 273.896C318.43 273.878 316.012 273.86 313.884 273.86C312.439 273.86 310.529 273.86 308.147 273.86C305.765 273.86 303.237 273.869 300.564 273.896C297.891 273.914 295.4 273.968 293.109 274.05V272.782C294.464 272.7 295.491 272.528 296.164 272.275C296.846 272.021 297.3 271.514 297.537 270.753C297.773 269.993 297.891 268.851 297.891 267.33V235.84C297.891 234.274 297.773 233.123 297.537 232.381C297.3 231.638 296.837 231.131 296.137 230.859C295.436 230.588 294.427 230.425 293.109 230.379V229.111C295.4 229.157 297.891 229.193 300.564 229.238C303.237 229.283 305.765 229.302 308.147 229.302C310.529 229.302 312.439 229.302 313.884 229.302C315.839 229.302 318.057 229.293 320.54 229.265C323.031 229.247 325.249 229.202 327.204 229.111ZM317.266 250.82V252.088H306.12V250.82H317.266ZM319.112 242.443C318.939 244.852 318.867 246.699 318.885 247.967C318.903 249.235 318.921 250.403 318.921 251.454C318.921 252.513 318.939 253.673 318.985 254.941C319.03 256.209 319.13 258.047 319.303 260.465H317.839C317.63 258.989 317.23 257.612 316.657 256.335C316.084 255.058 315.266 254.044 314.202 253.256C313.139 252.477 311.757 252.079 310.066 252.079V250.811C311.766 250.811 313.12 250.349 314.139 249.416C315.157 248.483 315.948 247.378 316.494 246.083C317.048 244.797 317.43 243.575 317.639 242.434H319.112V242.443Z" fill="#68B966"/>
<path d="M328.604 229.111C329.668 229.157 331.095 229.193 332.905 229.238C334.705 229.283 336.505 229.302 338.287 229.302C340.324 229.302 342.306 229.283 344.215 229.238C346.125 229.193 347.488 229.175 348.288 229.175C354.189 229.175 358.608 230.135 361.545 232.064C364.472 233.993 365.945 236.71 365.945 240.215C365.945 241.655 365.645 243.104 365.054 244.562C364.454 246.02 363.454 247.378 362.026 248.628C360.599 249.878 358.662 250.874 356.199 251.608C353.735 252.35 350.634 252.722 346.897 252.722H340.778V251.454H346.261C348.77 251.454 350.671 250.974 351.962 250.023C353.253 249.072 354.153 247.804 354.635 246.219C355.117 244.634 355.371 242.868 355.371 240.921C355.371 237.579 354.771 234.989 353.589 233.151C352.398 231.312 350.361 230.388 347.47 230.388C345.815 230.388 344.743 230.751 344.252 231.466C343.761 232.182 343.515 233.649 343.515 235.84V267.321C343.515 268.842 343.633 269.983 343.87 270.744C344.106 271.505 344.561 272.012 345.243 272.266C345.925 272.519 346.943 272.691 348.298 272.773V274.041C347.152 273.959 345.706 273.905 343.97 273.887C342.224 273.869 340.469 273.851 338.678 273.851C336.642 273.851 334.714 273.86 332.914 273.887C331.105 273.905 329.677 273.959 328.613 274.041V272.773C329.968 272.691 330.995 272.519 331.668 272.266C332.35 272.012 332.805 271.505 333.041 270.744C333.278 269.983 333.396 268.842 333.396 267.321V235.84C333.396 234.274 333.278 233.123 333.041 232.381C332.805 231.638 332.341 231.131 331.641 230.859C330.941 230.588 329.932 230.425 328.613 230.379V229.111H328.604ZM340.651 251.644C342.479 251.689 344.061 251.771 345.397 251.898C346.734 252.024 347.916 252.142 348.934 252.251C349.952 252.359 350.871 252.432 351.671 252.477C355.535 252.812 358.39 253.645 360.235 254.95C362.081 256.254 363.281 258.228 363.836 260.854L365.3 267.393C365.681 269.087 366.082 270.273 366.509 270.943C366.936 271.623 367.545 271.958 368.355 271.958C368.909 271.912 369.364 271.777 369.727 271.541C370.091 271.306 370.482 270.962 370.909 270.491L371.8 271.251C370.655 272.565 369.418 273.506 368.109 274.077C366.8 274.648 365.2 274.937 363.327 274.937C361.035 274.937 359.144 274.448 357.653 273.479C356.162 272.51 355.189 270.708 354.726 268.082L353.58 261.733C353.28 259.958 352.925 258.4 352.498 257.069C352.071 255.738 351.489 254.678 350.743 253.899C349.998 253.12 348.97 252.722 347.652 252.722H340.769L340.651 251.644Z" fill="#68B966"/>
<path d="M401.877 229.111C401.704 231.013 401.586 232.852 401.522 234.636C401.459 236.411 401.431 237.788 401.431 238.757C401.431 239.689 401.45 240.577 401.495 241.419C401.541 242.261 401.577 242.986 401.622 243.575H400.159C399.604 240.278 398.84 237.679 397.867 235.804C396.885 233.92 395.694 232.58 394.267 231.774C392.84 230.968 391.158 230.569 389.203 230.569H387.102C385.866 230.569 384.939 230.678 384.302 230.886C383.666 231.095 383.238 231.52 383.029 232.154C382.82 232.788 382.711 233.766 382.711 235.071V266.931C382.711 268.58 382.884 269.811 383.22 270.608C383.557 271.414 384.22 271.94 385.193 272.193C386.166 272.447 387.612 272.592 389.53 272.637V274.032C388.212 273.986 386.511 273.95 384.429 273.905C382.347 273.86 380.156 273.842 377.865 273.842C376.037 273.842 374.255 273.86 372.51 273.905C370.764 273.95 369.2 273.986 367.791 274.032V272.764C369.146 272.682 370.173 272.51 370.846 272.257C371.528 272.003 371.982 271.496 372.219 270.735C372.455 269.974 372.573 268.833 372.573 267.312V235.84C372.573 234.274 372.455 233.123 372.219 232.381C371.982 231.638 371.519 231.131 370.819 230.859C370.119 230.588 369.109 230.425 367.791 230.379V229.111C370.082 229.157 372.573 229.193 375.246 229.238C377.92 229.283 380.447 229.302 382.829 229.302C385.211 229.302 387.121 229.302 388.566 229.302C390.521 229.302 392.74 229.293 395.222 229.265C397.704 229.247 399.922 229.202 401.877 229.111ZM392.385 251.073V252.341H380.793V251.073H392.385ZM393.976 242.696C393.803 245.105 393.731 246.953 393.749 248.221C393.767 249.489 393.776 250.657 393.776 251.707C393.776 252.767 393.794 253.926 393.84 255.194C393.885 256.462 393.985 258.301 394.158 260.719H392.694C392.439 259.242 392.03 257.866 391.485 256.589C390.93 255.321 390.121 254.298 389.066 253.51C388.003 252.731 386.621 252.332 384.929 252.332V251.064C386.63 251.064 387.984 250.603 389.012 249.67C390.03 248.737 390.803 247.632 391.339 246.337C391.867 245.051 392.267 243.828 392.521 242.687H393.976V242.696Z" fill="#68B966"/>
</svg>
