<svg width="343" height="281" viewBox="0 0 343 281" fill="none" xmlns="http://www.w3.org/2000/svg">
<path d="M37.4794 51.5069C38.2714 50.4648 38.8371 49.0612 40.5626 49.4157C42.3375 49.7843 43.3346 51.0603 43.6741 52.6765C44.1832 55.0796 44.2893 57.5749 44.8267 59.9709C46.3613 66.8612 50.2436 72.3692 55.2856 77.1117C56.9969 78.7208 58.9275 80.089 60.7732 81.5493C61.2611 81.9321 61.8198 82.2227 62.3501 82.5559C60.4762 78.8768 58.5032 75.3678 56.8484 71.7029C53.6096 64.529 51.6438 56.944 49.989 49.2739C48.8575 44.0282 47.4079 38.8321 46.5381 33.5438C45.0601 24.5481 45.0601 15.517 46.9553 6.54966C47.0472 6.12433 47.0684 5.59976 47.3301 5.30912C47.8605 4.69948 48.511 3.83465 49.1475 3.79212C49.8122 3.74958 50.9649 4.43011 51.1487 5.03266C51.8135 7.14512 52.3651 9.34265 52.5772 11.5473C53.1359 17.3246 53.4399 23.1233 53.9915 28.9007C54.1188 30.2759 54.6562 31.6795 55.2785 32.9342C56.2261 34.834 57.5768 35.2026 59.3164 33.9975C60.9287 32.8846 62.4067 31.5661 63.8564 30.2405C71.3522 23.3785 75.97 14.7798 78.9613 5.18861C79.3502 3.94807 79.9796 2.77133 80.616 1.63712C81.2454 0.524174 82.2354 -0.291038 83.5861 0.0988461C84.9438 0.495819 85.0216 1.7718 85.0216 2.94855C85.0146 7.13803 84.47 11.2495 83.1123 15.2335C80.7645 22.1167 77.851 28.7235 73.3889 34.515C71.7553 36.6346 69.8601 38.584 67.8589 40.3562C64.811 43.0499 63.8422 46.488 63.6372 50.3372C63.0502 61.1122 67.6609 69.8953 74.1738 77.9198C75.8568 79.9968 77.7803 81.8753 79.8735 83.6901C79.4068 81.5563 78.8693 79.4368 78.4875 77.2818C77.6884 72.7733 77.2853 68.2223 78.3248 63.7209C78.6784 62.1897 79.5624 60.6515 80.5807 59.4464C81.9738 57.8018 84.0104 58.4114 84.2862 60.5522C84.5832 62.8702 84.4488 65.245 84.5337 67.5914C85.0075 79.8976 90.6223 89.354 100.6 96.2727C107.142 100.81 114.609 103.255 122.289 104.857C126.871 105.814 130.817 107.835 134.699 110.223C135.796 110.897 136.92 111.535 138.03 112.187C138.15 112.095 138.278 112.003 138.398 111.918C137.733 110.032 137.16 108.111 136.39 106.268C135.103 103.184 133.745 100.129 132.338 97.1021C129.997 92.0903 129.551 86.873 130.676 81.528C130.838 80.7411 131.765 79.6495 132.444 79.5715C133.144 79.4864 134.105 80.3512 134.685 81.0247C135.145 81.5564 135.336 82.4283 135.407 83.1655C136.227 91.5516 139.904 98.8247 144.373 105.722C146.99 109.756 149.797 113.711 152.895 117.376C154.663 119.467 157.208 120.885 159.358 122.664C162.512 125.28 162.3 128.272 158.743 130.278C155.228 132.263 151.296 132.823 147.365 133.127C144.819 133.319 142.224 133.29 139.685 133.028C137.316 132.787 135.393 131.398 133.879 129.576C131.418 126.599 128.363 124.543 124.806 123.061C113.188 118.22 101.76 113.024 90.8062 106.729C85.4388 103.645 79.5765 101.327 73.7637 99.1366C60.7873 94.2524 49.7415 87.0573 42.776 74.6164C40.4706 70.4624 38.8795 66.046 37.9815 61.3745C37.8754 60.8216 37.6491 60.297 37.4794 59.7583C37.4794 57.0078 37.4794 54.2573 37.4794 51.5069Z" fill="#131926"/>
<path d="M305.853 51.5069C305.061 50.4648 304.495 49.0612 302.77 49.4157C300.995 49.7843 299.998 51.0603 299.658 52.6765C299.149 55.0796 299.043 57.5749 298.505 59.9709C296.971 66.8612 293.089 72.3692 288.047 77.1117C286.335 78.7208 284.405 80.089 282.559 81.5493C282.071 81.9321 281.512 82.2227 280.982 82.5559C282.856 78.8768 284.829 75.3678 286.484 71.7029C289.723 64.529 291.688 56.944 293.343 49.2739C294.475 44.0282 295.924 38.8321 296.794 33.5438C298.272 24.5481 298.272 15.517 296.377 6.54966C296.285 6.12433 296.264 5.59976 296.002 5.30912C295.472 4.69948 294.821 3.83465 294.185 3.79212C293.52 3.74958 292.367 4.43011 292.183 5.03266C291.519 7.14512 290.967 9.34265 290.755 11.5473C290.196 17.3246 289.892 23.1233 289.341 28.9007C289.213 30.2759 288.676 31.6795 288.054 32.9342C287.106 34.834 285.755 35.2026 284.016 33.9975C282.403 32.8846 280.925 31.5661 279.476 30.2405C271.98 23.3785 267.362 14.7798 264.371 5.18861C263.982 3.94807 263.353 2.77133 262.716 1.63712C262.087 0.524174 261.097 -0.291038 259.746 0.0988461C258.388 0.495819 258.311 1.7718 258.311 2.94855C258.318 7.13803 258.862 11.2495 260.22 15.2335C262.568 22.1167 265.481 28.7235 269.943 34.515C271.577 36.6346 273.472 38.584 275.473 40.3562C278.521 43.0499 279.49 46.488 279.695 50.3372C280.282 61.1122 275.671 69.8953 269.158 77.9198C267.475 79.9968 265.552 81.8753 263.459 83.6901C263.925 81.5563 264.463 79.4368 264.845 77.2818C265.644 72.7733 266.047 68.2223 265.007 63.7209C264.654 62.1897 263.77 60.6515 262.752 59.4464C261.358 57.8018 259.322 58.4114 259.046 60.5522C258.749 62.8702 258.883 65.245 258.799 67.5914C258.325 79.8976 252.71 89.354 242.732 96.2727C236.191 100.81 228.723 103.255 221.043 104.857C216.461 105.814 212.515 107.835 208.633 110.223C207.537 110.897 206.412 111.535 205.302 112.187C205.182 112.095 205.054 112.003 204.934 111.918C205.599 110.032 206.172 108.111 206.943 106.268C208.23 103.184 209.587 100.129 210.995 97.1021C213.335 92.0903 213.781 86.873 212.656 81.528C212.494 80.7411 211.567 79.6495 210.889 79.5715C210.188 79.4864 209.227 80.3512 208.647 81.0247C208.187 81.5564 207.996 82.4283 207.926 83.1655C207.105 91.5516 203.428 98.8247 198.959 105.722C196.342 109.756 193.535 113.711 190.438 117.376C188.67 119.467 186.124 120.885 183.974 122.664C180.82 125.28 181.032 128.272 184.589 130.278C188.104 132.263 192.036 132.823 195.967 133.127C198.513 133.319 201.109 133.29 203.647 133.028C206.016 132.787 207.94 131.398 209.453 129.576C211.914 126.599 214.969 124.543 218.526 123.061C230.144 118.22 241.572 113.024 252.526 106.729C257.893 103.645 263.756 101.327 269.569 99.1366C282.545 94.2524 293.591 87.0573 300.556 74.6164C302.862 70.4624 304.453 66.046 305.351 61.3745C305.457 60.8216 305.683 60.297 305.853 59.7583C305.853 57.0078 305.853 54.2573 305.853 51.5069Z" fill="#131926"/>
<path fill-rule="evenodd" clip-rule="evenodd" d="M343 101.15L296.292 102.745C299.623 97.7259 302.756 91.8989 305.839 85.0653C288.86 92.7141 291.604 105.332 278.939 116.462C283.705 108.019 284.313 107.14 283.627 97.6621C268.112 106.502 276.492 117.936 262.37 125.195C263.685 119.489 273.826 112.655 269.194 103.865C255.206 115.824 260.772 126.903 236.191 133.744C262.2 130.412 278.33 124.826 291.045 109.77L335.589 108.246V250.49L290.684 248.859C279.108 239.254 264.484 235.043 243.298 232.328C267.879 239.169 262.313 250.249 276.308 262.208C280.933 253.41 270.792 246.577 269.477 240.87C283.599 248.122 275.219 259.563 290.734 268.403C291.42 258.925 290.812 258.046 286.045 249.604C298.711 260.74 295.967 273.358 312.946 281C308.215 270.516 303.357 262.371 297.862 255.955L342.993 257.593V101.15H343Z" fill="#131926"/>
<path fill-rule="evenodd" clip-rule="evenodd" d="M0 101.15L46.7078 102.745C43.3771 97.7259 40.2444 91.8989 37.1612 85.0653C54.14 92.7141 51.3963 105.332 64.0615 116.462C59.2952 108.019 58.6871 107.14 59.373 97.6621C74.8881 106.502 66.5082 117.936 80.6302 125.195C79.3149 119.489 69.1742 112.655 73.8061 103.865C87.7937 115.824 82.2284 126.903 106.809 133.744C80.7999 130.412 64.6696 124.826 51.9549 109.77L7.41102 108.246V250.49L52.3156 248.859C63.8917 239.254 78.5158 235.043 99.7022 232.328C75.1214 239.169 80.6868 250.249 66.6921 262.208C62.0673 253.41 72.2079 246.577 73.5232 240.87C59.4013 248.122 67.7811 259.563 52.2661 268.403C51.5801 258.925 52.1883 258.046 56.9545 249.604C44.2893 260.74 47.0331 273.358 30.0542 281C34.7851 270.516 39.6433 262.371 45.1379 255.955L0.00707245 257.593V101.15H0Z" fill="#131926"/>
<path d="M30.7966 150.722C31.235 150.743 31.8149 150.764 32.5291 150.786C33.2433 150.807 33.9505 150.814 34.6435 150.814C35.6335 150.814 36.5741 150.807 37.4792 150.786C38.3844 150.764 39.0279 150.757 39.4027 150.757C41.9485 150.757 43.8507 151.339 45.1095 152.494C46.3682 153.65 47.0046 155.152 47.0046 156.981C47.0046 157.74 46.8774 158.534 46.6228 159.37C46.3682 160.2 45.9368 160.972 45.3145 161.674C44.6922 162.383 43.8507 162.957 42.7758 163.397C41.701 163.836 40.3503 164.063 38.7097 164.063H35.683V163.432H38.3915C39.8836 163.432 41.0221 163.149 41.8141 162.581C42.599 162.014 43.1365 161.263 43.4193 160.334C43.7022 159.406 43.8436 158.406 43.8436 157.329C43.8436 155.33 43.4476 153.834 42.6627 152.841C41.8777 151.849 40.52 151.353 38.6107 151.353C37.6419 151.353 37.0125 151.53 36.7155 151.892C36.4326 152.253 36.2841 152.983 36.2841 154.075V169.755C36.2841 170.514 36.3619 171.081 36.5175 171.464C36.6731 171.847 36.9842 172.095 37.4509 172.222C37.9106 172.35 38.5895 172.435 39.4663 172.477V173.108C38.9218 173.066 38.2288 173.037 37.3873 173.03C36.5458 173.023 35.6972 173.016 34.8344 173.016C34.0141 173.016 33.2433 173.023 32.5291 173.03C31.8149 173.045 31.235 173.066 30.7966 173.108V172.477C31.5108 172.435 32.0553 172.35 32.423 172.222C32.7908 172.095 33.0383 171.839 33.1656 171.464C33.2928 171.081 33.3565 170.514 33.3565 169.755V154.075C33.3565 153.295 33.2928 152.721 33.1656 152.352C33.0383 151.984 32.7908 151.728 32.423 151.594C32.0553 151.459 31.5108 151.381 30.7966 151.36V150.722Z" fill="#131926"/>
<path d="M70.3409 150.282C72.3351 150.282 74.0888 150.736 75.588 151.643C77.0942 152.551 78.261 153.848 79.0884 155.549C79.9158 157.244 80.333 159.306 80.333 161.731C80.333 164.091 79.9087 166.154 79.0531 167.926C78.1974 169.699 77.0164 171.074 75.5031 172.066C73.9898 173.059 72.2573 173.555 70.2984 173.555C68.2972 173.555 66.5505 173.101 65.0513 172.194C63.5451 171.287 62.3783 169.982 61.5509 168.274C60.7235 166.565 60.3063 164.51 60.3063 162.107C60.3063 159.746 60.7377 157.683 61.6004 155.911C62.4631 154.139 63.6441 152.763 65.1503 151.771C66.6566 150.779 68.3891 150.282 70.3409 150.282ZM70.2206 150.849C68.8558 150.849 67.6678 151.324 66.6566 152.274C65.6453 153.224 64.8604 154.529 64.3088 156.194C63.7501 157.86 63.4744 159.788 63.4744 161.979C63.4744 164.212 63.7855 166.154 64.4078 167.813C65.0301 169.465 65.8716 170.741 66.9324 171.641C67.9931 172.534 69.167 172.981 70.4469 172.981C71.8118 172.981 72.9998 172.506 74.011 171.556C75.0223 170.606 75.8001 169.295 76.3588 167.622C76.9174 165.949 77.1932 164.02 77.1932 161.851C77.1932 159.597 76.8821 157.648 76.2598 156.003C75.6375 154.358 74.803 153.09 73.7494 152.196C72.6957 151.303 71.5218 150.849 70.2206 150.849Z" fill="#131926"/>
<path d="M113.202 150.722V151.353C112.487 151.374 111.943 151.48 111.575 151.672C111.208 151.863 110.96 152.168 110.833 152.586C110.705 153.004 110.642 153.607 110.642 154.387V163.9C110.642 165.374 110.55 166.658 110.359 167.756C110.168 168.855 109.836 169.798 109.348 170.599C108.824 171.485 108.054 172.194 107.049 172.733C106.045 173.271 104.886 173.541 103.577 173.541C102.566 173.541 101.604 173.42 100.692 173.179C99.7799 172.938 98.9737 172.492 98.2807 171.832C97.6725 171.244 97.1917 170.62 96.8451 169.968C96.4986 169.316 96.2582 168.515 96.138 167.565C96.0107 166.615 95.9471 165.424 95.9471 163.992V154.068C95.9471 153.288 95.8834 152.714 95.7561 152.345C95.6288 151.977 95.3813 151.721 95.0136 151.587C94.6459 151.452 94.1014 151.374 93.3871 151.353V150.722C93.8256 150.743 94.4055 150.764 95.1197 150.786C95.8339 150.807 96.6047 150.814 97.418 150.814C98.1534 150.814 98.8818 150.807 99.6101 150.786C100.339 150.764 100.94 150.743 101.42 150.722V151.353C100.706 151.374 100.162 151.452 99.794 151.587C99.4263 151.721 99.1788 151.977 99.0515 152.345C98.9242 152.714 98.8606 153.288 98.8606 154.068V164.531C98.8606 165.963 98.9666 167.281 99.1788 168.479C99.3909 169.677 99.8435 170.641 100.551 171.357C101.258 172.073 102.354 172.435 103.846 172.435C105.444 172.435 106.682 172.08 107.552 171.379C108.421 170.67 109.037 169.699 109.383 168.451C109.73 167.21 109.906 165.807 109.906 164.247V154.394C109.906 153.614 109.814 153.012 109.638 152.593C109.461 152.175 109.157 151.863 108.74 151.679C108.315 151.487 107.75 151.381 107.035 151.36V150.722C107.417 150.743 107.912 150.764 108.534 150.786C109.157 150.807 109.73 150.814 110.253 150.814C110.797 150.814 111.342 150.807 111.879 150.786C112.431 150.764 112.862 150.743 113.202 150.722Z" fill="#131926"/>
<path d="M126.1 150.722C126.539 150.743 127.119 150.764 127.833 150.786C128.547 150.807 129.254 150.814 129.947 150.814C130.937 150.814 131.885 150.807 132.783 150.786C133.688 150.764 134.325 150.757 134.706 150.757C137.252 150.757 139.154 151.282 140.413 152.338C141.672 153.394 142.308 154.699 142.308 156.258C142.308 156.889 142.181 157.563 141.926 158.279C141.672 158.994 141.241 159.668 140.618 160.299C139.996 160.93 139.154 161.454 138.08 161.865C137.005 162.277 135.654 162.482 134.013 162.482H130.987V161.851H133.695C135.187 161.851 136.326 161.617 137.118 161.142C137.903 160.667 138.44 160.037 138.723 159.243C139.006 158.449 139.147 157.57 139.147 156.606C139.147 154.94 138.751 153.65 137.966 152.735C137.174 151.821 135.824 151.36 133.914 151.36C132.946 151.36 132.316 151.537 132.019 151.899C131.722 152.26 131.581 152.983 131.581 154.082V169.762C131.581 170.521 131.644 171.088 131.772 171.471C131.899 171.854 132.146 172.102 132.514 172.229C132.882 172.357 133.426 172.442 134.141 172.484V173.115C133.66 173.073 133.052 173.045 132.33 173.037C131.602 173.03 130.874 173.023 130.138 173.023C129.318 173.023 128.547 173.03 127.833 173.037C127.119 173.052 126.539 173.073 126.1 173.115V172.484C126.815 172.442 127.359 172.357 127.727 172.229C128.094 172.102 128.342 171.847 128.469 171.471C128.597 171.088 128.66 170.521 128.66 169.762V154.075C128.66 153.295 128.597 152.721 128.469 152.352C128.342 151.984 128.094 151.728 127.727 151.594C127.359 151.459 126.815 151.381 126.1 151.36V150.722ZM131.114 161.951C132.253 161.993 133.144 162.043 133.794 162.092C134.445 162.142 134.975 162.192 135.385 162.234C135.795 162.277 136.191 162.326 136.566 162.39C137.973 162.624 138.992 163.049 139.607 163.673C140.222 164.297 140.682 165.261 140.979 166.565L141.764 169.791C141.976 170.719 142.188 171.386 142.407 171.797C142.627 172.208 142.973 172.399 143.433 172.385C143.786 172.364 144.09 172.251 144.331 172.038C144.571 171.825 144.833 171.542 145.102 171.187L145.575 171.535C145.13 172.187 144.677 172.69 144.204 173.037C143.73 173.385 143.065 173.562 142.202 173.562C141.424 173.562 140.738 173.328 140.152 172.867C139.565 172.407 139.119 171.499 138.829 170.152L138.136 166.991C137.945 166.083 137.733 165.296 137.493 164.637C137.252 163.971 136.913 163.453 136.481 163.071C136.05 162.688 135.414 162.503 134.572 162.503H131.164L131.114 161.951Z" fill="#131926"/>
<path d="M175.354 150.722V151.353C174.951 151.438 174.526 151.679 174.074 152.083C173.621 152.487 173.218 153.16 172.858 154.103L165.447 173.257C165.404 173.257 165.362 173.257 165.319 173.257C165.277 173.257 165.234 173.257 165.192 173.257C165.15 173.257 165.107 173.257 165.065 173.257C165.022 173.257 164.98 173.257 164.937 173.257L157.258 153.38C156.939 152.579 156.586 152.047 156.183 151.785C155.787 151.523 155.419 151.381 155.08 151.36V150.722C155.497 150.743 156.02 150.764 156.642 150.786C157.265 150.807 157.866 150.814 158.453 150.814C159.273 150.814 160.037 150.807 160.758 150.786C161.472 150.764 162.052 150.743 162.491 150.722V151.353C161.416 151.395 160.744 151.58 160.454 151.906C160.164 152.232 160.228 152.934 160.631 154.004L166.493 169.592L165.991 170.131L171.479 155.84C171.917 154.699 172.129 153.813 172.108 153.168C172.087 152.522 171.846 152.069 171.38 151.792C170.92 151.516 170.241 151.374 169.364 151.353V150.722C169.972 150.743 170.595 150.764 171.224 150.786C171.853 150.807 172.44 150.814 172.992 150.814C173.536 150.814 173.989 150.807 174.35 150.786C174.71 150.764 175.043 150.743 175.354 150.722Z" fill="#131926"/>
<path d="M197.021 150.282C199.015 150.282 200.769 150.736 202.268 151.643C203.775 152.551 204.941 153.848 205.769 155.549C206.596 157.244 207.013 159.306 207.013 161.731C207.013 164.091 206.589 166.154 205.733 167.926C204.878 169.699 203.697 171.074 202.183 172.066C200.67 173.059 198.938 173.555 196.979 173.555C194.978 173.555 193.231 173.101 191.732 172.194C190.225 171.287 189.059 169.982 188.231 168.274C187.404 166.565 186.987 164.51 186.987 162.107C186.987 159.746 187.418 157.683 188.281 155.911C189.143 154.139 190.324 152.763 191.831 151.771C193.337 150.779 195.062 150.282 197.021 150.282ZM196.894 150.849C195.529 150.849 194.341 151.324 193.33 152.274C192.319 153.224 191.534 154.529 190.982 156.194C190.423 157.86 190.148 159.788 190.148 161.979C190.148 164.212 190.459 166.154 191.081 167.813C191.703 169.465 192.545 170.741 193.606 171.641C194.666 172.534 195.84 172.981 197.12 172.981C198.485 172.981 199.673 172.506 200.684 171.556C201.695 170.606 202.473 169.295 203.032 167.622C203.591 165.949 203.866 164.02 203.866 161.851C203.866 159.597 203.555 157.648 202.933 156.003C202.311 154.358 201.476 153.09 200.423 152.196C199.369 151.303 198.195 150.849 196.894 150.849Z" fill="#131926"/>
<path d="M228.525 150.722V151.353C227.811 151.374 227.266 151.452 226.899 151.587C226.531 151.721 226.283 151.977 226.156 152.345C226.029 152.714 225.965 153.288 225.965 154.068V169.748C225.965 170.507 226.029 171.074 226.156 171.457C226.283 171.839 226.531 172.088 226.899 172.215C227.266 172.343 227.811 172.428 228.525 172.47V173.101C228.044 173.059 227.436 173.03 226.715 173.023C225.986 173.016 225.258 173.009 224.523 173.009C223.702 173.009 222.931 173.016 222.217 173.023C221.503 173.037 220.923 173.059 220.485 173.101V172.47C221.199 172.428 221.743 172.343 222.111 172.215C222.479 172.088 222.726 171.832 222.854 171.457C222.981 171.074 223.045 170.507 223.045 169.748V154.075C223.045 153.295 222.981 152.721 222.854 152.352C222.726 151.984 222.479 151.728 222.111 151.594C221.743 151.459 221.199 151.381 220.485 151.36V150.722C220.923 150.743 221.503 150.764 222.217 150.786C222.931 150.807 223.702 150.814 224.523 150.814C225.258 150.814 225.986 150.807 226.715 150.786C227.436 150.764 228.044 150.743 228.525 150.722Z" fill="#131926"/>
<path d="M241.897 150.722C242.336 150.743 242.916 150.764 243.63 150.786C244.344 150.807 245.051 150.814 245.744 150.814C246.734 150.814 247.682 150.807 248.58 150.786C249.485 150.764 250.122 150.757 250.504 150.757C253.049 150.757 254.952 151.282 256.21 152.338C257.469 153.394 258.105 154.699 258.105 156.258C258.105 156.889 257.978 157.563 257.724 158.279C257.469 158.994 257.038 159.668 256.415 160.299C255.793 160.93 254.952 161.454 253.877 161.865C252.802 162.277 251.451 162.482 249.811 162.482H246.784V161.851H249.492C250.984 161.851 252.123 161.617 252.915 161.142C253.7 160.667 254.237 160.037 254.52 159.243C254.803 158.449 254.944 157.57 254.944 156.606C254.944 154.94 254.549 153.65 253.764 152.735C252.972 151.821 251.621 151.36 249.712 151.36C248.743 151.36 248.113 151.537 247.816 151.899C247.519 152.26 247.378 152.983 247.378 154.082V169.762C247.378 170.521 247.442 171.088 247.569 171.471C247.696 171.854 247.944 172.102 248.311 172.229C248.679 172.357 249.224 172.442 249.938 172.484V173.115C249.457 173.073 248.849 173.045 248.128 173.037C247.399 173.03 246.671 173.023 245.935 173.023C245.115 173.023 244.344 173.03 243.63 173.037C242.916 173.052 242.336 173.073 241.897 173.115V172.484C242.612 172.442 243.156 172.357 243.524 172.229C243.892 172.102 244.139 171.847 244.266 171.471C244.394 171.088 244.457 170.521 244.457 169.762V154.075C244.457 153.295 244.394 152.721 244.266 152.352C244.139 151.984 243.892 151.728 243.524 151.594C243.156 151.459 242.612 151.381 241.897 151.36V150.722ZM246.911 161.951C248.05 161.993 248.941 162.043 249.591 162.092C250.242 162.142 250.772 162.192 251.182 162.234C251.593 162.277 251.989 162.326 252.363 162.39C253.771 162.624 254.789 163.049 255.404 163.673C256.019 164.297 256.479 165.261 256.776 166.565L257.561 169.791C257.773 170.719 257.985 171.386 258.205 171.797C258.424 172.208 258.77 172.399 259.23 172.385C259.583 172.364 259.888 172.251 260.128 172.038C260.368 171.825 260.63 171.542 260.899 171.187L261.373 171.535C260.927 172.187 260.474 172.69 260.001 173.037C259.527 173.385 258.862 173.562 257.999 173.562C257.222 173.562 256.536 173.328 255.949 172.867C255.362 172.407 254.916 171.499 254.626 170.152L253.933 166.991C253.742 166.083 253.53 165.296 253.29 164.637C253.049 163.971 252.71 163.453 252.279 163.071C251.847 162.688 251.211 162.503 250.369 162.503H246.961L246.911 161.951Z" fill="#131926"/>
<path d="M281.095 150.722V151.353C280.381 151.374 279.837 151.452 279.469 151.587C279.101 151.721 278.854 151.977 278.726 152.345C278.599 152.714 278.535 153.288 278.535 154.068V169.748C278.535 170.507 278.599 171.074 278.726 171.457C278.854 171.839 279.101 172.088 279.469 172.215C279.837 172.343 280.381 172.428 281.095 172.47V173.101C280.614 173.059 280.006 173.03 279.285 173.023C278.557 173.016 277.828 173.009 277.093 173.009C276.272 173.009 275.502 173.016 274.787 173.023C274.073 173.037 273.493 173.059 273.055 173.101V172.47C273.769 172.428 274.314 172.343 274.681 172.215C275.049 172.088 275.297 171.832 275.424 171.457C275.551 171.074 275.615 170.507 275.615 169.748V154.075C275.615 153.295 275.551 152.721 275.424 152.352C275.297 151.984 275.049 151.728 274.681 151.594C274.314 151.459 273.769 151.381 273.055 151.36V150.722C273.493 150.743 274.073 150.764 274.787 150.786C275.502 150.807 276.272 150.814 277.093 150.814C277.828 150.814 278.557 150.807 279.285 150.786C280.006 150.764 280.607 150.743 281.095 150.722Z" fill="#131926"/>
<path d="M310.202 150.722C310.117 151.459 310.06 152.175 310.025 152.87C309.997 153.564 309.976 154.089 309.976 154.451C309.976 154.833 309.983 155.195 310.004 155.542C310.025 155.89 310.046 156.18 310.068 156.414H309.339C309.212 155.174 309.035 154.188 308.802 153.458C308.568 152.728 308.179 152.218 307.621 151.913C307.062 151.608 306.228 151.452 305.117 151.452H302.501C301.787 151.452 301.242 151.509 300.874 151.629C300.507 151.743 300.259 151.991 300.132 152.359C300.005 152.728 299.941 153.302 299.941 154.082V169.762C299.941 170.521 300.005 171.088 300.132 171.471C300.259 171.854 300.507 172.102 300.874 172.215C301.242 172.329 301.787 172.392 302.501 172.392H304.806C306.129 172.392 307.133 172.215 307.819 171.854C308.505 171.499 309 170.911 309.304 170.103C309.608 169.295 309.834 168.189 309.983 166.799H310.711C310.647 167.366 310.619 168.125 310.619 169.075C310.619 169.479 310.633 170.053 310.669 170.797C310.697 171.549 310.761 172.321 310.845 173.123C309.771 173.08 308.561 173.052 307.218 173.045C305.874 173.037 304.672 173.03 303.625 173.03C302.996 173.03 302.161 173.03 301.115 173.03C300.068 173.03 298.965 173.037 297.791 173.045C296.61 173.059 295.507 173.08 294.482 173.123V172.492C295.196 172.449 295.74 172.364 296.108 172.236C296.476 172.109 296.723 171.854 296.851 171.478C296.978 171.095 297.042 170.528 297.042 169.77V154.075C297.042 153.295 296.978 152.721 296.851 152.352C296.723 151.984 296.476 151.728 296.108 151.594C295.74 151.459 295.196 151.381 294.482 151.36V150.722C295.514 150.743 296.617 150.764 297.791 150.786C298.965 150.807 300.075 150.814 301.115 150.814C302.154 150.814 302.989 150.814 303.625 150.814C304.594 150.814 305.69 150.807 306.921 150.8C308.137 150.793 309.233 150.764 310.202 150.722ZM304.778 161.539V162.17H299.008V161.539H304.778ZM305.69 157.364C305.605 158.562 305.57 159.484 305.577 160.115C305.584 160.745 305.591 161.327 305.591 161.851C305.591 162.376 305.598 162.957 305.619 163.588C305.641 164.219 305.69 165.133 305.775 166.339H305.047C304.962 165.665 304.863 165.006 304.75 164.361C304.637 163.716 304.382 163.191 303.993 162.78C303.604 162.369 302.946 162.163 302.02 162.163V161.532C302.946 161.532 303.59 161.291 303.958 160.802C304.325 160.32 304.559 159.746 304.665 159.094C304.771 158.442 304.863 157.86 304.948 157.357H305.69V157.364Z" fill="#131926"/>
<path d="M46.0148 179.332V180.325C44.8904 180.36 44.0418 180.481 43.4619 180.7C42.8821 180.913 42.4931 181.317 42.2951 181.891C42.0971 182.473 41.9981 183.373 41.9981 184.599V209.835C41.9981 210.863 42.0688 211.622 42.2244 212.118C42.3729 212.614 42.6699 212.947 43.1154 213.11C43.5609 213.274 44.2327 213.359 45.1237 213.359H47.5493C49.0697 213.359 50.4486 212.898 51.6862 211.969C52.9237 211.041 53.9632 209.743 54.8047 208.07C55.6463 206.397 56.2332 204.469 56.5656 202.286H57.7041C57.6051 203.413 57.5556 204.866 57.5556 206.66C57.5556 207.425 57.5697 208.531 57.6051 209.991C57.6404 211.452 57.7395 212.955 57.9021 214.514C56.2191 214.45 54.3168 214.408 52.2024 214.394C50.088 214.379 48.207 214.365 46.5522 214.365C45.4278 214.365 43.9428 214.365 42.09 214.365C40.2373 214.365 38.2714 214.372 36.1923 214.394C34.1133 214.415 32.1898 214.436 30.4078 214.507V213.515C31.4614 213.451 32.2605 213.316 32.7838 213.118C33.3142 212.919 33.6678 212.522 33.8516 211.927C34.0355 211.331 34.1274 210.438 34.1274 209.247V184.599C34.1274 183.373 34.0355 182.473 33.8516 181.891C33.6678 181.31 33.3071 180.913 32.7626 180.7C32.2181 180.481 31.4332 180.36 30.4078 180.325V179.332C31.2352 179.368 32.3454 179.396 33.7526 179.432C35.1599 179.467 36.652 179.481 38.236 179.481C39.6928 179.481 41.1212 179.467 42.5214 179.432C43.9286 179.403 45.0955 179.368 46.0148 179.332Z" fill="#68B966"/>
<path d="M73.4242 179.233L85.4671 210.332C85.9268 211.523 86.4501 212.345 87.0299 212.791C87.6098 213.238 88.126 213.479 88.5928 213.515V214.507C87.6027 214.443 86.4359 214.401 85.0994 214.386C83.7629 214.372 82.4122 214.358 81.0615 214.358C79.5411 214.358 78.1056 214.365 76.7479 214.386C75.3901 214.401 74.3223 214.443 73.5303 214.507V213.515C75.2133 213.451 76.2811 213.16 76.7266 212.643C77.1722 212.132 77.0661 211.026 76.4014 209.339L67.972 186.237L68.863 184.947L61.3318 204.618C60.4054 207.071 59.9528 208.921 59.967 210.183C59.9811 211.445 60.3913 212.295 61.1833 212.742C61.9753 213.188 63.0361 213.444 64.3514 213.515V214.507C63.2623 214.443 62.2228 214.401 61.2328 214.386C60.2428 214.372 59.2315 214.358 58.2062 214.358C57.4778 214.358 56.7919 214.365 56.1483 214.386C55.5048 214.401 54.932 214.443 54.437 214.507V213.515C55.13 213.38 55.8443 212.933 56.5656 212.175C57.2939 211.416 58.0011 210.119 58.6941 208.297L69.9945 179.233C70.5249 179.268 71.0906 179.283 71.7058 179.283C72.321 179.283 72.8938 179.268 73.4242 179.233ZM76.8893 200.195V201.187H62.1238L62.6188 200.195H76.8893Z" fill="#68B966"/>
<path d="M103.599 178.638C105.777 178.638 107.573 178.964 108.973 179.609C110.38 180.254 111.625 181.005 112.714 181.87C113.372 182.366 113.881 182.423 114.227 182.047C114.574 181.665 114.814 180.764 114.949 179.339H116.087C116.023 180.63 115.967 182.196 115.939 184.032C115.903 185.868 115.889 188.314 115.889 191.362H114.751C114.588 189.838 114.369 188.541 114.107 187.463C113.845 186.386 113.478 185.436 113.018 184.606C112.551 183.777 111.894 183.033 111.038 182.373C110.211 181.544 109.256 180.934 108.167 180.537C107.078 180.14 105.939 179.942 104.751 179.942C102.969 179.942 101.449 180.417 100.19 181.36C98.9314 182.303 97.9202 183.586 97.1423 185.209C96.3644 186.832 95.7987 188.661 95.431 190.696C95.0703 192.73 94.8865 194.843 94.8865 197.026C94.8865 199.245 95.0774 201.371 95.4593 203.406C95.8411 205.44 96.4352 207.255 97.2413 208.843C98.0475 210.431 99.1011 211.693 100.388 212.621C101.675 213.55 103.196 214.011 104.949 214.011C106.038 214.011 107.134 213.805 108.245 213.387C109.348 212.976 110.303 212.366 111.095 211.572C112.382 210.58 113.258 209.346 113.718 207.872C114.178 206.397 114.524 204.434 114.758 201.988H115.896C115.896 205.136 115.91 207.673 115.946 209.616C115.981 211.551 116.031 213.181 116.094 214.507H114.956C114.821 213.082 114.602 212.189 114.284 211.827C113.973 211.466 113.449 211.515 112.721 211.976C111.498 212.841 110.204 213.593 108.832 214.238C107.46 214.883 105.699 215.209 103.556 215.209C100.056 215.209 96.9867 214.5 94.3632 213.075C91.7396 211.65 89.6959 209.594 88.2463 206.915C86.7895 204.235 86.0682 201.003 86.0682 197.224C86.0682 193.517 86.8178 190.27 88.324 187.484C89.8303 184.706 91.8881 182.536 94.5188 180.977C97.1352 179.417 100.162 178.638 103.599 178.638Z" fill="#68B966"/>
<path d="M139.777 179.332C146.283 179.332 151.127 180.814 154.295 183.777C157.463 186.74 159.054 190.986 159.054 196.516C159.054 200.124 158.276 203.278 156.727 205.979C155.172 208.68 152.923 210.771 149.96 212.267C147.004 213.756 143.461 214.5 139.331 214.5C138.539 214.5 137.408 214.472 135.937 214.422C134.466 214.372 133.186 214.351 132.097 214.351C130.64 214.351 129.212 214.358 127.812 214.379C126.405 214.394 125.294 214.436 124.467 214.5V213.507C125.521 213.444 126.32 213.309 126.843 213.11C127.373 212.912 127.727 212.515 127.911 211.92C128.095 211.324 128.187 210.431 128.187 209.24V184.599C128.187 183.373 128.095 182.473 127.911 181.891C127.727 181.31 127.366 180.913 126.822 180.7C126.277 180.488 125.492 180.36 124.467 180.325V179.332C125.294 179.368 126.405 179.403 127.812 179.453C129.212 179.502 130.612 179.51 131.998 179.481C133.186 179.446 134.53 179.417 136.036 179.382C137.535 179.346 138.787 179.332 139.777 179.332ZM139.727 180.225C138.207 180.225 137.217 180.509 136.75 181.069C136.291 181.629 136.057 182.777 136.057 184.5V209.339C136.057 211.062 136.298 212.203 136.779 212.763C137.259 213.323 138.256 213.607 139.777 213.607C142.549 213.607 144.741 212.955 146.346 211.643C147.952 210.339 149.097 208.425 149.79 205.908C150.483 203.392 150.83 200.329 150.83 196.721C150.83 191.156 149.967 187.017 148.256 184.302C146.53 181.587 143.687 180.225 139.727 180.225Z" fill="#68B966"/>
<path d="M190.374 179.332V180.325C189.313 180.459 188.514 180.729 187.97 181.147C187.425 181.558 187.072 182.217 186.902 183.111C186.739 184.004 186.654 185.266 186.654 186.889V200.046C186.654 202.201 186.506 204.171 186.209 205.958C185.912 207.744 185.382 209.29 184.625 210.58C183.769 212.005 182.51 213.132 180.856 213.961C179.201 214.791 177.108 215.202 174.562 215.202C173.042 215.202 171.493 215.024 169.902 214.677C168.311 214.33 166.896 213.678 165.638 212.714C164.577 211.82 163.771 210.807 163.212 209.68C162.653 208.552 162.272 207.22 162.074 205.681C161.876 204.143 161.777 202.314 161.777 200.195V184.599C161.777 183.373 161.685 182.473 161.508 181.891C161.324 181.31 160.97 180.913 160.44 180.7C159.91 180.488 159.118 180.36 158.064 180.325V179.332C158.891 179.368 160.002 179.396 161.409 179.432C162.816 179.467 164.273 179.481 165.793 179.481C167.314 179.481 168.777 179.467 170.178 179.432C171.578 179.396 172.745 179.368 173.671 179.332V180.325C172.547 180.36 171.698 180.481 171.118 180.7C170.538 180.913 170.149 181.317 169.951 181.891C169.753 182.473 169.654 183.373 169.654 184.599V203.328C169.654 205.547 169.852 207.411 170.248 208.914C170.644 210.424 171.344 211.558 172.356 212.317C173.36 213.082 174.746 213.458 176.493 213.458C178.805 213.458 180.615 212.912 181.916 211.82C183.218 210.729 184.144 209.212 184.688 207.276C185.233 205.341 185.509 203.115 185.509 200.592V187.477C185.509 185.656 185.396 184.259 185.162 183.281C184.929 182.303 184.476 181.601 183.797 181.168C183.119 180.736 182.086 180.459 180.7 180.325V179.332C181.329 179.368 182.157 179.396 183.175 179.432C184.201 179.467 185.155 179.481 186.046 179.481C186.838 179.481 187.623 179.467 188.401 179.432C189.186 179.403 189.844 179.368 190.374 179.332Z" fill="#68B966"/>
<path d="M214.849 178.638C217.027 178.638 218.823 178.964 220.223 179.609C221.63 180.254 222.875 181.005 223.964 181.87C224.622 182.366 225.131 182.423 225.477 182.047C225.824 181.665 226.064 180.764 226.199 179.339H227.337C227.274 180.63 227.217 182.196 227.189 184.032C227.153 185.868 227.139 188.314 227.139 191.362H226.001C225.838 189.838 225.619 188.541 225.357 187.463C225.095 186.386 224.728 185.436 224.268 184.606C223.801 183.777 223.144 183.033 222.288 182.373C221.461 181.544 220.506 180.934 219.417 180.537C218.328 180.14 217.189 179.942 216.001 179.942C214.219 179.942 212.699 180.417 211.44 181.36C210.182 182.303 209.17 183.586 208.392 185.209C207.615 186.832 207.049 188.661 206.681 190.696C206.32 192.73 206.137 194.843 206.137 197.026C206.137 199.245 206.328 201.371 206.709 203.406C207.091 205.44 207.685 207.255 208.491 208.843C209.298 210.431 210.351 211.693 211.638 212.621C212.925 213.55 214.446 214.011 216.199 214.011C217.288 214.011 218.385 213.805 219.495 213.387C220.598 212.976 221.553 212.366 222.345 211.572C223.632 210.58 224.509 209.346 224.968 207.872C225.428 206.397 225.774 204.434 226.008 201.988H227.146C227.146 205.136 227.16 207.673 227.196 209.616C227.231 211.551 227.281 213.181 227.344 214.507H226.206C226.071 213.082 225.852 212.189 225.534 211.827C225.223 211.466 224.699 211.515 223.971 211.976C222.748 212.841 221.454 213.593 220.082 214.238C218.71 214.883 216.949 215.209 214.806 215.209C211.306 215.209 208.237 214.5 205.613 213.075C202.99 211.65 200.946 209.594 199.496 206.915C198.04 204.235 197.318 201.003 197.318 197.224C197.318 193.517 198.068 190.27 199.574 187.484C201.08 184.706 203.138 182.536 205.769 180.977C208.385 179.417 211.412 178.638 214.849 178.638Z" fill="#68B966"/>
<path d="M254.492 179.332C254.358 180.793 254.266 182.196 254.216 183.557C254.167 184.918 254.146 185.96 254.146 186.69C254.146 187.35 254.16 187.981 254.195 188.576C254.23 189.172 254.259 189.668 254.294 190.065H253.156C252.823 187.647 252.314 185.733 251.621 184.33C250.928 182.926 250.03 181.927 248.92 181.353C247.809 180.771 246.515 180.481 245.03 180.481H243.001C242.011 180.481 241.275 180.566 240.794 180.729C240.314 180.892 239.995 181.218 239.826 181.7C239.663 182.182 239.578 182.948 239.578 184.011V209.843C239.578 210.87 239.663 211.629 239.826 212.125C239.988 212.621 240.314 212.955 240.794 213.118C241.275 213.281 242.011 213.366 243.001 213.366H245.426C246.911 213.366 248.227 213.04 249.365 212.395C250.504 211.749 251.48 210.651 252.286 209.091C253.092 207.532 253.714 205.433 254.146 202.782H255.284C255.185 203.845 255.136 205.235 255.136 206.957C255.136 207.723 255.15 208.793 255.185 210.183C255.22 211.572 255.319 213.011 255.482 214.507C253.799 214.443 251.897 214.401 249.782 214.386C247.668 214.372 245.787 214.358 244.132 214.358C243.008 214.358 241.523 214.358 239.67 214.358C237.817 214.358 235.851 214.365 233.772 214.386C231.693 214.401 229.756 214.443 227.974 214.507V213.515C229.027 213.451 229.826 213.316 230.35 213.118C230.88 212.919 231.234 212.522 231.417 211.927C231.601 211.331 231.693 210.438 231.693 209.247V184.599C231.693 183.373 231.601 182.473 231.417 181.891C231.234 181.31 230.873 180.913 230.328 180.7C229.784 180.488 228.999 180.36 227.974 180.325V179.332C229.756 179.368 231.693 179.396 233.772 179.432C235.851 179.467 237.817 179.481 239.67 179.481C241.523 179.481 243.008 179.481 244.132 179.481C245.653 179.481 247.378 179.474 249.309 179.453C251.246 179.439 252.972 179.403 254.492 179.332ZM246.763 196.324V197.317H238.093V196.324H246.763ZM248.198 189.767C248.064 191.653 248.007 193.099 248.022 194.091C248.036 195.084 248.05 195.998 248.05 196.82C248.05 197.65 248.064 198.557 248.099 199.55C248.135 200.542 248.213 201.981 248.347 203.874H247.208C247.046 202.718 246.735 201.641 246.289 200.641C245.844 199.642 245.207 198.848 244.38 198.231C243.552 197.621 242.477 197.31 241.162 197.31V196.317C242.485 196.317 243.538 195.956 244.33 195.225C245.122 194.495 245.737 193.63 246.162 192.617C246.593 191.61 246.89 190.653 247.053 189.76H248.198V189.767Z" fill="#68B966"/>
<path d="M255.581 179.332C256.409 179.368 257.519 179.396 258.926 179.432C260.326 179.467 261.726 179.481 263.112 179.481C264.696 179.481 266.238 179.467 267.723 179.432C269.208 179.396 270.269 179.382 270.891 179.382C275.481 179.382 278.917 180.133 281.201 181.643C283.478 183.153 284.624 185.28 284.624 188.023C284.624 189.15 284.391 190.285 283.931 191.426C283.464 192.567 282.686 193.63 281.576 194.609C280.466 195.587 278.96 196.367 277.043 196.941C275.127 197.522 272.716 197.813 269.809 197.813H265.05V196.82H269.314C271.266 196.82 272.744 196.445 273.748 195.7C274.752 194.956 275.452 193.964 275.827 192.723C276.202 191.483 276.4 190.1 276.4 188.576C276.4 185.96 275.933 183.933 275.014 182.494C274.087 181.055 272.503 180.332 270.255 180.332C268.968 180.332 268.133 180.615 267.751 181.175C267.369 181.735 267.179 182.884 267.179 184.599V209.24C267.179 210.431 267.27 211.324 267.454 211.92C267.638 212.515 267.992 212.912 268.522 213.11C269.052 213.309 269.844 213.444 270.898 213.507V214.5C270.007 214.436 268.883 214.394 267.532 214.379C266.174 214.365 264.81 214.351 263.416 214.351C261.832 214.351 260.333 214.358 258.933 214.379C257.526 214.394 256.416 214.436 255.588 214.5V213.507C256.642 213.444 257.441 213.309 257.964 213.11C258.495 212.912 258.848 212.515 259.032 211.92C259.216 211.324 259.308 210.431 259.308 209.24V184.599C259.308 183.373 259.216 182.473 259.032 181.891C258.848 181.31 258.488 180.913 257.943 180.7C257.399 180.488 256.614 180.36 255.588 180.325V179.332H255.581ZM264.951 196.969C266.372 197.005 267.603 197.069 268.642 197.168C269.682 197.267 270.601 197.359 271.393 197.444C272.185 197.529 272.899 197.586 273.522 197.621C276.527 197.884 278.748 198.536 280.183 199.557C281.619 200.577 282.552 202.123 282.983 204.179L284.122 209.297C284.419 210.622 284.73 211.551 285.062 212.076C285.395 212.607 285.869 212.869 286.498 212.869C286.929 212.834 287.283 212.728 287.566 212.543C287.849 212.359 288.153 212.09 288.485 211.721L289.178 212.317C288.287 213.344 287.325 214.082 286.307 214.528C285.289 214.975 284.044 215.202 282.587 215.202C280.805 215.202 279.335 214.819 278.175 214.06C277.015 213.302 276.258 211.891 275.898 209.835L275.007 204.866C274.773 203.477 274.498 202.258 274.165 201.215C273.833 200.173 273.38 199.344 272.8 198.734C272.221 198.125 271.421 197.813 270.396 197.813H265.043L264.951 196.969Z" fill="#68B966"/>
<path d="M312.571 179.332C312.437 180.821 312.345 182.26 312.295 183.656C312.246 185.046 312.224 186.123 312.224 186.882C312.224 187.612 312.239 188.307 312.274 188.966C312.309 189.625 312.338 190.192 312.373 190.653H311.234C310.803 188.073 310.209 186.038 309.452 184.571C308.689 183.096 307.762 182.047 306.652 181.416C305.542 180.786 304.234 180.474 302.713 180.474H301.08C300.118 180.474 299.397 180.559 298.902 180.722C298.407 180.885 298.074 181.218 297.912 181.714C297.749 182.21 297.664 182.976 297.664 183.997V208.935C297.664 210.225 297.798 211.189 298.06 211.813C298.322 212.444 298.838 212.855 299.595 213.054C300.351 213.252 301.476 213.366 302.968 213.401V214.493C301.942 214.457 300.62 214.429 299.001 214.394C297.381 214.358 295.677 214.344 293.895 214.344C292.474 214.344 291.088 214.358 289.73 214.394C288.372 214.429 287.156 214.457 286.06 214.493V213.5C287.113 213.437 287.912 213.302 288.436 213.103C288.966 212.905 289.32 212.508 289.504 211.912C289.687 211.317 289.779 210.424 289.779 209.233V184.599C289.779 183.373 289.687 182.473 289.504 181.891C289.32 181.31 288.959 180.913 288.414 180.7C287.87 180.488 287.085 180.36 286.06 180.325V179.332C287.842 179.368 289.779 179.396 291.858 179.432C293.937 179.467 295.903 179.481 297.756 179.481C299.609 179.481 301.094 179.481 302.218 179.481C303.739 179.481 305.464 179.474 307.395 179.453C309.325 179.439 311.051 179.403 312.571 179.332ZM305.188 196.523V197.515H296.172V196.523H305.188ZM306.426 189.966C306.291 191.851 306.235 193.297 306.249 194.29C306.263 195.282 306.27 196.197 306.27 197.019C306.27 197.848 306.284 198.756 306.32 199.748C306.355 200.741 306.433 202.18 306.567 204.072H305.429C305.231 202.917 304.912 201.839 304.488 200.84C304.057 199.847 303.427 199.046 302.607 198.43C301.78 197.82 300.705 197.508 299.39 197.508V196.516C300.712 196.516 301.766 196.154 302.565 195.424C303.357 194.694 303.958 193.829 304.375 192.815C304.785 191.809 305.096 190.852 305.294 189.958H306.426V189.966Z" fill="#68B966"/>
</svg>
