<svg width="441" height="359" fill="none" xmlns="http://www.w3.org/2000/svg"><path d="M48.188 65.804c1.018-1.331 1.745-3.124 3.964-2.672 2.282.471 3.564 2.102 4 4.167.655 3.07.791 6.258 1.482 9.319 1.973 8.803 6.965 15.84 13.448 21.898 2.2 2.056 4.682 3.804 7.055 5.67.627.489 1.346.86 2.027 1.286-2.409-4.701-4.946-9.184-7.073-13.866-4.164-9.165-6.692-18.855-8.82-28.655-1.454-6.701-3.318-13.34-4.436-20.096-1.9-11.493-1.9-23.03.536-34.487.118-.544.145-1.214.482-1.585.682-.779 1.518-1.884 2.337-1.938.854-.055 2.336.815 2.573 1.585.854 2.698 1.563 5.506 1.836 8.323.718 7.38 1.11 14.789 1.819 22.17.163 1.757.854 3.55 1.654 5.153 1.219 2.427 2.955 2.898 5.192 1.359 2.073-1.422 3.973-3.107 5.837-4.8 9.638-8.767 15.575-19.753 19.421-32.006.5-1.585 1.309-3.088 2.127-4.537.809-1.422 2.082-2.464 3.819-1.966 1.745.507 1.846 2.138 1.846 3.641-.01 5.352-.71 10.605-2.455 15.695-3.019 8.794-6.765 17.235-12.502 24.634-2.1 2.708-4.537 5.198-7.11 7.462C83.33 55 82.083 59.392 81.82 64.31c-.755 13.766 5.174 24.987 13.547 35.239 2.164 2.653 4.637 5.053 7.329 7.372-.601-2.726-1.292-5.434-1.783-8.187-1.027-5.76-1.545-11.575-.209-17.325.455-1.957 1.591-3.922 2.901-5.462 1.791-2.1 4.409-1.322 4.764 1.413.382 2.962.209 5.996.318 8.993.609 15.723 7.828 27.804 20.657 36.643 8.41 5.796 18.012 8.921 27.886 10.968 5.891 1.222 10.965 3.803 15.956 6.855 1.409.861 2.855 1.676 4.282 2.509.155-.118.319-.235.473-.344-.854-2.409-1.591-4.864-2.582-7.218a319.7 319.7 0 00-5.21-11.71c-3.009-6.403-3.582-13.069-2.136-19.897.209-1.006 1.4-2.4 2.273-2.5.9-.109 2.136.996 2.882 1.857.591.679.836 1.793.927 2.735 1.055 10.713 5.783 20.005 11.529 28.817 3.364 5.154 6.974 10.207 10.956 14.889 2.273 2.672 5.546 4.483 8.31 6.757 4.055 3.341 3.782 7.163-.791 9.726-4.519 2.536-9.574 3.252-14.629 3.641-3.273.245-6.61.208-9.874-.127-3.046-.308-5.519-2.083-7.465-4.41-3.164-3.804-7.091-6.43-11.665-8.323-14.938-6.186-29.631-12.824-43.714-20.867-6.901-3.939-14.438-6.901-21.912-9.699-16.684-6.24-30.886-15.432-39.841-31.327a56.462 56.462 0 01-6.165-16.917c-.136-.707-.427-1.377-.645-2.065V65.804zm345.051 0c-1.018-1.331-1.745-3.124-3.964-2.672-2.282.471-3.564 2.102-4 4.167-.655 3.07-.791 6.258-1.482 9.319-1.973 8.803-6.965 15.84-13.447 21.898-2.201 2.056-4.683 3.804-7.056 5.67-.627.489-1.346.86-2.027 1.286 2.409-4.701 4.946-9.184 7.073-13.866 4.164-9.165 6.692-18.855 8.819-28.655 1.455-6.701 3.319-13.34 4.437-20.096 1.901-11.493 1.901-23.03-.536-34.487-.118-.544-.146-1.214-.482-1.585-.682-.779-1.518-1.884-2.337-1.938-.854-.055-2.336.815-2.573 1.585-.854 2.698-1.563 5.506-1.836 8.323-.719 7.38-1.109 14.789-1.819 22.17-.163 1.757-.854 3.55-1.654 5.153-1.219 2.427-2.955 2.898-5.192 1.359-2.073-1.422-3.973-3.107-5.837-4.8-9.638-8.767-15.575-19.753-19.421-32.006-.5-1.585-1.309-3.088-2.127-4.537-.809-1.422-2.082-2.464-3.819-1.966-1.745.507-1.845 2.138-1.845 3.641.009 5.352.709 10.605 2.454 15.695 3.019 8.794 6.765 17.235 12.502 24.634 2.1 2.708 4.537 5.198 7.11 7.462 3.919 3.442 5.164 7.834 5.428 12.752.754 13.766-5.174 24.987-13.547 35.239-2.164 2.653-4.637 5.053-7.328 7.372.6-2.726 1.291-5.434 1.782-8.187 1.027-5.76 1.545-11.575.209-17.325-.455-1.957-1.591-3.922-2.901-5.462-1.791-2.1-4.409-1.322-4.764 1.413-.382 2.962-.209 5.996-.318 8.993-.609 15.723-7.828 27.804-20.657 36.643-8.41 5.796-18.012 8.921-27.886 10.968-5.891 1.222-10.965 3.803-15.956 6.855-1.409.861-2.855 1.676-4.282 2.509a17.043 17.043 0 00-.473-.344c.854-2.409 1.591-4.864 2.582-7.218a319.7 319.7 0 015.21-11.71c3.009-6.403 3.582-13.069 2.136-19.897-.209-1.006-1.4-2.4-2.273-2.5-.9-.109-2.136.996-2.882 1.857-.591.679-.836 1.793-.927 2.735-1.055 10.713-5.783 20.005-11.529 28.817-3.364 5.154-6.974 10.207-10.956 14.889-2.273 2.672-5.546 4.483-8.31 6.757-4.055 3.341-3.782 7.163.791 9.726 4.519 2.536 9.574 3.252 14.629 3.641 3.273.245 6.61.208 9.874-.127 3.046-.308 5.519-2.083 7.465-4.41 3.164-3.804 7.091-6.43 11.665-8.323 14.938-6.186 29.631-12.824 43.714-20.867 6.901-3.939 14.438-6.901 21.912-9.699 16.684-6.24 30.886-15.432 39.841-31.327a56.472 56.472 0 006.165-16.917c.136-.707.427-1.377.645-2.065V65.804z" fill="#F2ECE9"/><path fill-rule="evenodd" clip-rule="evenodd" d="M441 129.227l-60.053 2.038c4.282-6.412 8.31-13.857 12.274-22.587-21.83 9.772-18.302 25.892-34.586 40.111 6.128-10.786 6.91-11.909 6.028-24.018-19.948 11.294-9.174 25.902-27.33 35.176 1.691-7.291 14.729-16.021 8.773-27.251-17.984 15.278-10.828 29.433-42.432 38.173 33.44-4.257 54.179-11.393 70.527-30.629l57.27-1.947v181.728l-57.734-2.083c-14.884-12.272-33.686-17.651-60.926-21.12 31.604 8.739 24.449 22.895 42.442 38.173 5.946-11.239-7.092-19.969-8.783-27.26 18.157 9.265 7.383 23.882 27.331 35.176.882-12.109.1-13.232-6.028-24.018 16.284 14.227 12.756 30.348 34.586 40.111-6.083-13.395-12.329-23.801-19.394-31.997l58.026 2.092V129.227H441zm-441 0l60.053 2.038c-4.282-6.412-8.31-13.857-12.274-22.587 21.83 9.772 18.302 25.892 34.586 40.111-6.128-10.786-6.91-11.909-6.028-24.018 19.948 11.294 9.173 25.902 27.33 35.176-1.691-7.291-14.729-16.021-8.773-27.251 17.984 15.278 10.828 29.433 42.432 38.173-33.44-4.257-54.18-11.393-70.527-30.629l-57.27-1.947v181.728l57.734-2.083c14.883-12.272 33.686-17.651 60.926-21.12-31.604 8.739-24.449 22.895-42.442 38.173-5.946-11.239 7.092-19.969 8.783-27.26-18.157 9.265-7.383 23.882-27.33 35.176-.883-12.109-.1-13.232 6.027-24.018C56.943 333.116 60.471 349.237 38.641 359c6.083-13.395 12.329-23.801 19.393-31.997L.01 329.095V129.227H0z" fill="#F2ECE9"/><path d="M39.596 192.559c.563.027 1.309.055 2.227.082a92.5 92.5 0 002.719.036c1.273 0 2.482-.009 3.646-.036 1.163-.027 1.99-.036 2.473-.036 3.273 0 5.718.742 7.337 2.218 1.618 1.477 2.437 3.397 2.437 5.733 0 .969-.164 1.984-.491 3.052a7.888 7.888 0 01-1.683 2.944c-.8.905-1.882 1.639-3.264 2.2-1.382.562-3.118.852-5.227.852h-3.892v-.806h3.482c1.919 0 3.383-.363 4.401-1.087a5.403 5.403 0 002.064-2.871c.364-1.187.545-2.463.545-3.84 0-2.554-.509-4.465-1.518-5.733-1.01-1.268-2.755-1.902-5.21-1.902-1.245 0-2.055.227-2.436.689-.364.461-.555 1.394-.555 2.789v20.033c0 .969.1 1.694.3 2.183.2.489.6.806 1.2.969.591.163 1.464.271 2.591.326v.806a39.12 39.12 0 00-2.673-.1 392.494 392.494 0 00-3.282-.018c-1.054 0-2.046.009-2.964.018-.918.018-1.664.045-2.227.1v-.806c.918-.055 1.618-.163 2.09-.326.474-.163.792-.489.955-.969.164-.489.246-1.214.246-2.183v-20.033c0-.996-.082-1.73-.246-2.201a1.515 1.515 0 00-.954-.969c-.473-.172-1.173-.272-2.091-.299v-.815zm50.842-.561c2.564 0 4.819.579 6.746 1.739 1.937 1.159 3.437 2.816 4.501 4.99 1.064 2.164 1.6 4.8 1.6 7.897 0 3.016-.545 5.651-1.645 7.915-1.101 2.265-2.619 4.022-4.565 5.289-1.945 1.268-4.173 1.902-6.691 1.902-2.573 0-4.82-.579-6.747-1.739-1.936-1.159-3.436-2.825-4.5-5.008-1.064-2.182-1.6-4.809-1.6-7.879 0-3.016.554-5.651 1.663-7.915 1.11-2.264 2.628-4.021 4.565-5.289 1.936-1.268 4.164-1.902 6.673-1.902zm-.154.724c-1.755 0-3.283.607-4.583 1.821-1.3 1.213-2.31 2.88-3.018 5.008-.719 2.128-1.073 4.592-1.073 7.39 0 2.853.4 5.334 1.2 7.454.8 2.11 1.882 3.74 3.246 4.89 1.364 1.141 2.873 1.712 4.519 1.712 1.754 0 3.282-.607 4.582-1.821 1.3-1.213 2.3-2.889 3.019-5.026.718-2.137 1.072-4.601 1.072-7.372 0-2.88-.4-5.371-1.2-7.472-.8-2.101-1.873-3.722-3.227-4.863-1.355-1.141-2.864-1.721-4.537-1.721zm55.261-.163v.806c-.918.027-1.618.163-2.091.408-.473.244-.791.634-.955 1.168-.163.534-.245 1.304-.245 2.3v12.154c0 1.884-.118 3.523-.364 4.927-.245 1.404-.673 2.608-1.3 3.632-.673 1.132-1.664 2.037-2.955 2.726-1.291.688-2.782 1.032-4.464 1.032-1.3 0-2.537-.154-3.71-.462a7.052 7.052 0 01-3.1-1.72c-.782-.752-1.4-1.549-1.846-2.382-.445-.833-.754-1.857-.909-3.07-.164-1.214-.245-2.736-.245-4.565v-12.679c0-.996-.082-1.73-.246-2.201a1.516 1.516 0 00-.955-.969c-.472-.172-1.172-.272-2.091-.299v-.806a101.838 101.838 0 005.183.118c.945 0 1.882-.009 2.818-.036.937-.027 1.71-.055 2.328-.082v.806c-.919.027-1.619.127-2.091.299a1.516 1.516 0 00-.955.969c-.164.471-.246 1.205-.246 2.201v13.367c0 1.83.137 3.514.41 5.045.272 1.53.854 2.762 1.763 3.677.91.914 2.319 1.376 4.237 1.376 2.055 0 3.646-.452 4.765-1.349 1.118-.906 1.909-2.146 2.354-3.74.446-1.585.673-3.378.673-5.371v-12.588c0-.997-.118-1.767-.345-2.301a2.176 2.176 0 00-1.155-1.168c-.546-.245-1.273-.381-2.191-.408v-.815c.491.027 1.127.055 1.927.082a65.21 65.21 0 004.301 0 72.354 72.354 0 001.7-.082zm16.584 0c.564.027 1.309.055 2.228.082.918.027 1.827.036 2.718.036 1.273 0 2.491-.009 3.646-.036a113.6 113.6 0 012.473-.036c3.273 0 5.719.67 7.337 2.019 1.619 1.35 2.437 3.016 2.437 5.008 0 .806-.164 1.667-.491 2.581-.327.915-.882 1.776-1.682 2.582-.8.806-1.882 1.476-3.264 2.001-1.382.525-3.119.788-5.228.788h-3.891v-.806h3.482c1.918 0 3.382-.299 4.4-.906 1.01-.606 1.701-1.412 2.064-2.427.364-1.014.546-2.137.546-3.369 0-2.128-.509-3.776-1.519-4.945-1.018-1.168-2.754-1.757-5.209-1.757-1.246 0-2.055.227-2.437.689-.382.462-.564 1.385-.564 2.789v20.033c0 .969.082 1.694.246 2.183.163.489.482.806.954.969.473.163 1.173.271 2.092.326v.806a30.3 30.3 0 00-2.328-.1c-.936-.009-1.873-.018-2.818-.018-1.055 0-2.046.009-2.964.018-.919.018-1.664.045-2.228.1v-.806c.918-.055 1.618-.163 2.091-.326.473-.163.791-.489.955-.969.164-.489.245-1.214.245-2.183v-20.042c0-.996-.081-1.73-.245-2.201a1.516 1.516 0 00-.955-.969c-.473-.172-1.173-.272-2.091-.299v-.815zm6.446 14.346a92.92 92.92 0 013.446.181 75.65 75.65 0 012.046.181c.527.054 1.036.118 1.518.199 1.81.299 3.119.843 3.91 1.64.791.796 1.382 2.028 1.764 3.695l1.009 4.12c.273 1.187.545 2.038.827 2.563.282.526.728.77 1.319.752.454-.027.845-.172 1.154-.444a7.48 7.48 0 00.991-1.087l.609.444c-.572.833-1.154 1.476-1.763 1.92-.61.444-1.464.67-2.573.67-1.001 0-1.882-.298-2.637-.887-.755-.589-1.328-1.748-1.7-3.469l-.891-4.039c-.246-1.159-.519-2.165-.828-3.007-.309-.851-.745-1.512-1.3-2.001-.555-.489-1.373-.725-2.455-.725h-4.382l-.064-.706zm56.88-14.346v.806c-.518.109-1.064.417-1.646.933-.581.516-1.1 1.377-1.563 2.581l-9.529 24.471h-.655l-9.873-25.395c-.41-1.023-.864-1.702-1.382-2.037-.51-.335-.982-.517-1.419-.544v-.815c.537.027 1.209.055 2.01.082.8.027 1.572.036 2.327.036a102.476 102.476 0 005.192-.118v.806c-1.382.055-2.246.29-2.619.707-.373.416-.291 1.313.227 2.68l7.538 19.916-.646.688 7.056-18.258c.563-1.458.836-2.59.809-3.414-.027-.824-.337-1.404-.937-1.757-.591-.353-1.463-.535-2.591-.562v-.806l2.391.082c.809.027 1.564.036 2.273.036.7 0 1.282-.009 1.746-.036.464-.027.891-.055 1.291-.082zm27.858-.561c2.564 0 4.819.579 6.746 1.739 1.937 1.159 3.437 2.816 4.501 4.99 1.064 2.164 1.6 4.8 1.6 7.897 0 3.016-.546 5.651-1.646 7.915-1.1 2.265-2.618 4.022-4.564 5.289-1.946 1.268-4.173 1.902-6.692 1.902-2.573 0-4.818-.579-6.746-1.739-1.936-1.159-3.437-2.825-4.5-5.008-1.064-2.182-1.601-4.809-1.601-7.879 0-3.016.555-5.651 1.664-7.915 1.109-2.264 2.628-4.021 4.564-5.289 1.937-1.268 4.155-1.902 6.674-1.902zm-.164.724c-1.754 0-3.282.607-4.582 1.821-1.3 1.213-2.309 2.88-3.019 5.008-.718 2.128-1.072 4.592-1.072 7.39 0 2.853.4 5.334 1.2 7.454.8 2.11 1.882 3.74 3.246 4.89 1.363 1.141 2.873 1.712 4.518 1.712 1.755 0 3.282-.607 4.583-1.821 1.3-1.213 2.3-2.889 3.018-5.026s1.073-4.601 1.073-7.372c0-2.88-.4-5.371-1.2-7.472-.8-2.101-1.873-3.722-3.228-4.863-1.355-1.141-2.864-1.721-4.537-1.721zm40.669-.163v.806c-.918.027-1.618.127-2.091.299a1.516 1.516 0 00-.955.969c-.163.471-.245 1.205-.245 2.201v20.033c0 .969.082 1.694.245 2.183.164.489.482.806.955.969.473.163 1.173.271 2.091.326v.806c-.618-.055-1.4-.091-2.327-.1-.937-.009-1.873-.018-2.819-.018-1.055 0-2.046.009-2.964.018-.918.018-1.664.045-2.228.1v-.806c.919-.055 1.619-.163 2.092-.326.472-.163.791-.489.954-.969.164-.489.246-1.214.246-2.183v-20.024c0-.996-.082-1.73-.246-2.201a1.514 1.514 0 00-.954-.969c-.473-.172-1.173-.272-2.092-.299v-.815a102.07 102.07 0 005.192.118c.946 0 1.882-.009 2.819-.036.927-.027 1.709-.055 2.327-.082zm17.193 0c.564.027 1.309.055 2.228.082.918.027 1.827.036 2.718.036 1.273 0 2.491-.009 3.646-.036a113.6 113.6 0 012.473-.036c3.273 0 5.719.67 7.337 2.019 1.619 1.35 2.437 3.016 2.437 5.008 0 .806-.164 1.667-.491 2.581-.327.915-.882 1.776-1.682 2.582-.8.806-1.882 1.476-3.264 2.001-1.382.525-3.119.788-5.228.788h-3.891v-.806h3.482c1.918 0 3.382-.299 4.4-.906 1.01-.606 1.701-1.412 2.064-2.427.364-1.014.546-2.137.546-3.369 0-2.128-.509-3.776-1.519-4.945-1.018-1.168-2.754-1.757-5.209-1.757-1.246 0-2.055.227-2.437.689-.382.462-.564 1.385-.564 2.789v20.033c0 .969.082 1.694.246 2.183.163.489.482.806.954.969.473.163 1.173.271 2.092.326v.806a30.3 30.3 0 00-2.328-.1c-.936-.009-1.873-.018-2.818-.018-1.055 0-2.046.009-2.964.018-.919.018-1.664.045-2.228.1v-.806c.918-.055 1.618-.163 2.091-.326.473-.163.791-.489.955-.969.163-.489.245-1.214.245-2.183v-20.042c0-.996-.082-1.73-.245-2.201a1.516 1.516 0 00-.955-.969c-.473-.172-1.173-.272-2.091-.299v-.815zm6.446 14.346a92.92 92.92 0 013.446.181 75.65 75.65 0 012.046.181c.527.054 1.036.118 1.518.199 1.81.299 3.119.843 3.91 1.64.791.796 1.382 2.028 1.764 3.695l1.009 4.12c.273 1.187.545 2.038.827 2.563.282.526.728.77 1.319.752.454-.027.845-.172 1.154-.444a7.48 7.48 0 00.991-1.087l.609.444c-.572.833-1.154 1.476-1.763 1.92-.61.444-1.464.67-2.573.67-1.001 0-1.882-.298-2.637-.887-.755-.589-1.328-1.748-1.7-3.469l-.891-4.039c-.246-1.159-.519-2.165-.828-3.007-.309-.851-.745-1.512-1.3-2.001-.555-.489-1.373-.725-2.455-.725h-4.382l-.064-.706zm43.951-14.346v.806c-.918.027-1.618.127-2.091.299a1.516 1.516 0 00-.955.969c-.163.471-.245 1.205-.245 2.201v20.033c0 .969.082 1.694.245 2.183.164.489.482.806.955.969.473.163 1.173.271 2.091.326v.806c-.618-.055-1.4-.091-2.327-.1-.937-.009-1.873-.018-2.819-.018-1.055 0-2.046.009-2.964.018-.918.018-1.664.045-2.227.1v-.806c.918-.055 1.618-.163 2.091-.326.473-.163.791-.489.954-.969.164-.489.246-1.214.246-2.183v-20.024c0-.996-.082-1.73-.246-2.201a1.512 1.512 0 00-.954-.969c-.473-.172-1.173-.272-2.091-.299v-.815a102.07 102.07 0 005.191.118c.946 0 1.882-.009 2.819-.036.927-.027 1.7-.055 2.327-.082zm37.423 0a42.652 42.652 0 00-.227 2.744 56.507 56.507 0 00-.064 2.02c0 .489.009.951.036 1.395.028.443.055.815.082 1.114h-.936c-.164-1.585-.391-2.844-.691-3.777-.3-.933-.8-1.585-1.519-1.974-.718-.39-1.791-.589-3.218-.589h-3.364c-.919 0-1.619.073-2.091.226-.473.145-.791.462-.955.933-.164.471-.246 1.205-.246 2.201v20.033c0 .969.082 1.694.246 2.183.164.489.482.806.955.951.472.145 1.172.226 2.091.226h2.964c1.7 0 2.991-.226 3.873-.688.882-.453 1.518-1.205 1.909-2.237.391-1.033.682-2.445.873-4.221h.937c-.082.725-.119 1.694-.119 2.908 0 .516.019 1.249.064 2.2.036.96.118 1.947.227 2.971a138.008 138.008 0 00-4.664-.1c-1.727-.009-3.273-.018-4.619-.018h-3.227c-1.346 0-2.764.009-4.274.018-1.518.018-2.936.046-4.255.1v-.806c.919-.055 1.619-.163 2.092-.326.472-.163.791-.489.954-.969.164-.489.246-1.214.246-2.183v-20.051c0-.996-.082-1.73-.246-2.201a1.514 1.514 0 00-.954-.969c-.473-.172-1.173-.272-2.092-.299v-.815c1.328.027 2.746.055 4.255.082 1.51.027 2.937.036 4.274.036h3.227c1.246 0 2.655-.009 4.237-.018 1.564-.009 2.973-.045 4.219-.1zm-6.974 13.821v.806h-7.419v-.806h7.419zm1.173-5.335c-.109 1.531-.154 2.708-.145 3.514.009.806.018 1.549.018 2.219 0 .67.009 1.413.036 2.219.028.806.091 1.974.2 3.514h-.936a51.7 51.7 0 00-.382-2.527c-.145-.824-.473-1.494-.973-2.02-.5-.525-1.345-.788-2.536-.788v-.806c1.191 0 2.018-.307 2.491-.932.473-.616.773-1.35.909-2.183.136-.833.255-1.576.364-2.219h.954v.009z" fill="#F2ECE9"/><path d="M59.162 229.111v1.268c-1.446.046-2.537.2-3.282.48a2.385 2.385 0 00-1.5 1.522c-.255.742-.382 1.893-.382 3.459v32.242c0 1.313.09 2.282.29 2.916.191.634.573 1.059 1.146 1.268.573.208 1.437.317 2.582.317h3.119c1.955 0 3.727-.589 5.319-1.775 1.59-1.187 2.927-2.844 4.01-4.982 1.081-2.137 1.836-4.6 2.263-7.39h1.464c-.127 1.44-.191 3.297-.191 5.588a183 183 0 00.064 4.257 72.16 72.16 0 00.382 5.778c-2.164-.082-4.61-.136-7.329-.154-2.718-.018-5.137-.036-7.264-.036h-5.737c-2.382 0-4.91.009-7.583.036-2.673.027-5.146.054-7.437.145v-1.268c1.354-.082 2.382-.254 3.055-.507.681-.254 1.136-.761 1.372-1.522.237-.761.355-1.902.355-3.423v-31.49c0-1.566-.118-2.717-.355-3.459-.236-.743-.7-1.25-1.4-1.522-.7-.28-1.709-.434-3.027-.48v-1.268c1.064.046 2.49.082 4.3.127 1.81.045 3.728.064 5.765.064 1.872 0 3.71-.019 5.51-.064 1.809-.036 3.309-.081 4.49-.127z" fill="#68B966"/><path d="M94.403 228.985l15.483 39.731c.591 1.521 1.264 2.572 2.01 3.142.745.571 1.409.879 2.009.924v1.268a84.524 84.524 0 00-4.491-.154 495.8 495.8 0 00-5.192-.036c-1.955 0-3.8.009-5.546.036-1.746.018-3.119.072-4.137.154v-1.268c2.164-.082 3.537-.453 4.11-1.114.572-.652.436-2.065-.419-4.22l-10.837-29.516 1.145-1.648-9.683 25.132c-1.19 3.134-1.773 5.497-1.755 7.109.019 1.612.546 2.699 1.564 3.27 1.019.57 2.382.896 4.073.987v1.268a90.818 90.818 0 00-4.01-.154 274.036 274.036 0 00-3.89-.036c-.937 0-1.819.009-2.646.036-.828.018-1.564.072-2.2.154v-1.268c.89-.172 1.809-.743 2.736-1.712.937-.969 1.846-2.626 2.737-4.954l14.529-37.131c.682.045 1.41.063 2.2.063.791 0 1.528-.018 2.21-.063zm4.455 26.78v1.268H79.874l.636-1.268h18.348zm34.34-27.541c2.801 0 5.11.416 6.91 1.241 1.809.824 3.41 1.784 4.81 2.889.845.634 1.5.706 1.946.226.445-.489.754-1.639.927-3.46h1.464c-.082 1.649-.155 3.65-.191 5.996-.046 2.345-.064 5.47-.064 9.364h-1.464c-.209-1.947-.491-3.604-.827-4.981-.336-1.376-.809-2.59-1.4-3.65-.6-1.059-1.446-2.01-2.546-2.852a9.976 9.976 0 00-3.691-2.346 12.8 12.8 0 00-4.392-.761c-2.291 0-4.246.607-5.864 1.812-1.619 1.204-2.919 2.843-3.919 4.917s-1.727 4.411-2.2 7.01a45.966 45.966 0 00-.7 8.087c0 2.835.245 5.552.736 8.151.491 2.6 1.255 4.918 2.291 6.947 1.037 2.028 2.392 3.64 4.046 4.827 1.655 1.186 3.61 1.775 5.865 1.775 1.4 0 2.809-.263 4.237-.797a10.105 10.105 0 003.664-2.319c1.655-1.267 2.782-2.843 3.373-4.727.591-1.884 1.036-4.392 1.336-7.517h1.464c0 4.021.018 7.263.064 9.745.045 2.472.109 4.555.191 6.249H147.8c-.173-1.821-.455-2.962-.864-3.424-.4-.461-1.073-.398-2.009.191a32.876 32.876 0 01-5.001 2.889c-1.764.824-4.027 1.24-6.782 1.24-4.501 0-8.447-.905-11.82-2.726-3.373-1.82-6.001-4.446-7.865-7.87-1.873-3.423-2.8-7.553-2.8-12.38 0-4.737.964-8.884 2.9-12.444 1.937-3.55 4.583-6.321 7.965-8.314 3.364-1.992 7.255-2.988 11.674-2.988zm46.515.887c8.365 0 14.593 1.893 18.666 5.679 4.073 3.785 6.119 9.21 6.119 16.274 0 4.61-1 8.64-2.991 12.091-2.001 3.45-4.892 6.122-8.701 8.033-3.801 1.902-8.356 2.853-13.666 2.853-1.018 0-2.473-.036-4.364-.1-1.891-.063-3.537-.09-4.937-.09-1.873 0-3.709.009-5.51.036-1.809.018-3.236.072-4.3.154v-1.268c1.355-.082 2.382-.254 3.055-.507.682-.254 1.136-.761 1.373-1.522.236-.761.354-1.902.354-3.423V235.84c0-1.566-.118-2.717-.354-3.459-.237-.743-.7-1.25-1.401-1.522-.7-.271-1.709-.434-3.027-.48v-1.268c1.064.046 2.491.091 4.3.154a96.74 96.74 0 005.383.037c1.527-.046 3.255-.082 5.191-.127 1.928-.046 3.537-.064 4.81-.064zm-.064 1.141c-1.954 0-3.227.363-3.827 1.078-.591.716-.891 2.183-.891 4.384v31.734c0 2.2.309 3.658.927 4.374.618.715 1.9 1.078 3.855 1.078 3.564 0 6.383-.834 8.447-2.509 2.063-1.666 3.536-4.112 4.427-7.327.891-3.215 1.337-7.127 1.337-11.737 0-7.109-1.109-12.398-3.31-15.867-2.218-3.469-5.873-5.208-10.965-5.208zm65.118-1.141v1.268c-1.364.172-2.392.517-3.092 1.051-.7.525-1.154 1.367-1.373 2.509-.209 1.141-.318 2.753-.318 4.827v16.809c0 2.753-.191 5.27-.573 7.553-.381 2.282-1.063 4.256-2.036 5.905-1.1 1.82-2.719 3.26-4.846 4.319-2.128 1.06-4.819 1.585-8.092 1.585-1.955 0-3.946-.226-5.992-.67-2.046-.444-3.864-1.277-5.482-2.508-1.364-1.142-2.401-2.437-3.119-3.877-.718-1.44-1.209-3.142-1.464-5.108-.254-1.965-.382-4.301-.382-7.009V235.84c0-1.566-.118-2.717-.345-3.459-.236-.743-.691-1.25-1.373-1.522-.682-.271-1.7-.434-3.055-.48v-1.268c1.064.046 2.491.082 4.301.127 1.809.045 3.682.064 5.637.064 1.954 0 3.837-.019 5.637-.064 1.8-.045 3.3-.081 4.491-.127v1.268c-1.445.046-2.536.2-3.282.48-.746.272-1.246.788-1.5 1.522-.255.742-.382 1.893-.382 3.459v23.928c0 2.834.255 5.216.764 7.136.509 1.929 1.409 3.378 2.709 4.347 1.291.978 3.073 1.458 5.319 1.458 2.973 0 5.301-.697 6.974-2.092 1.672-1.394 2.864-3.332 3.564-5.805.7-2.472 1.054-5.316 1.054-8.54v-16.755c0-2.327-.145-4.111-.445-5.361-.3-1.25-.882-2.147-1.755-2.699-.873-.552-2.2-.906-3.982-1.078v-1.268c.809.046 1.873.082 3.182.127 1.318.045 2.546.064 3.691.064 1.019 0 2.028-.019 3.028-.064a80.916 80.916 0 002.537-.127zm31.467-.887c2.801 0 5.11.416 6.91 1.241 1.809.824 3.41 1.784 4.81 2.889.845.634 1.5.706 1.946.226.445-.489.754-1.639.927-3.46h1.464c-.082 1.649-.155 3.65-.191 5.996-.046 2.345-.064 5.47-.064 9.364h-1.464c-.209-1.947-.491-3.604-.827-4.981-.336-1.376-.809-2.59-1.4-3.65-.6-1.059-1.446-2.01-2.546-2.852a9.976 9.976 0 00-3.691-2.346 12.803 12.803 0 00-4.392-.761c-2.291 0-4.246.607-5.864 1.812-1.619 1.204-2.919 2.843-3.919 4.917s-1.727 4.411-2.2 7.01a45.966 45.966 0 00-.7 8.087c0 2.835.245 5.552.736 8.151.491 2.6 1.255 4.918 2.291 6.947 1.037 2.028 2.392 3.64 4.046 4.827 1.655 1.186 3.61 1.775 5.865 1.775 1.4 0 2.809-.263 4.237-.797a10.105 10.105 0 003.664-2.319c1.655-1.267 2.782-2.843 3.373-4.727.591-1.884 1.036-4.392 1.336-7.517h1.464c0 4.021.018 7.263.064 9.745.045 2.472.109 4.555.191 6.249h-1.464c-.173-1.821-.455-2.962-.864-3.424-.4-.461-1.073-.398-2.009.191a32.876 32.876 0 01-5.001 2.889c-1.764.824-4.027 1.24-6.782 1.24-4.501 0-8.447-.905-11.82-2.726-3.373-1.82-6.001-4.446-7.865-7.87-1.873-3.423-2.8-7.553-2.8-12.38 0-4.737.964-8.884 2.9-12.444 1.937-3.55 4.583-6.321 7.965-8.314 3.364-1.992 7.255-2.988 11.674-2.988zm50.97.887a97.115 97.115 0 00-.355 5.398c-.063 1.739-.09 3.07-.09 4.003 0 .842.018 1.648.063 2.409.046.761.082 1.395.127 1.902h-1.463c-.428-3.088-1.082-5.534-1.973-7.327-.891-1.793-2.046-3.07-3.473-3.804-1.428-.742-3.092-1.113-5.001-1.113h-2.61c-1.272 0-2.218.108-2.836.317-.618.208-1.028.624-1.246 1.24-.209.616-.318 1.594-.318 2.953v33.002c0 1.313.109 2.282.318 2.916.209.634.628 1.059 1.246 1.268.618.208 1.564.317 2.836.317h3.119c1.909 0 3.6-.417 5.064-1.241 1.464-.824 2.719-2.228 3.755-4.22 1.037-1.993 1.837-4.673 2.392-8.061h1.463c-.127 1.359-.191 3.134-.191 5.335 0 .978.019 2.345.064 4.12.046 1.775.173 3.614.382 5.525-2.164-.082-4.61-.136-7.328-.154-2.719-.018-5.137-.036-7.265-.036h-5.737c-2.382 0-4.91.009-7.583.036-2.673.018-5.164.072-7.455.154v-1.268c1.355-.082 2.382-.254 3.055-.507.682-.254 1.136-.761 1.373-1.522.236-.76.354-1.902.354-3.423v-31.49c0-1.566-.118-2.717-.354-3.459-.237-.743-.7-1.25-1.4-1.522-.701-.271-1.71-.434-3.028-.48v-1.268c2.291.046 4.782.082 7.455.127s5.201.064 7.583.064h5.737c1.955 0 4.173-.009 6.656-.037 2.491-.018 4.709-.063 6.664-.154zm-9.938 21.709v1.268H306.12v-1.268h11.146zm1.846-8.377c-.173 2.409-.245 4.256-.227 5.524.018 1.268.036 2.436.036 3.487 0 1.059.018 2.219.064 3.487.045 1.268.145 3.106.318 5.524h-1.464a15.272 15.272 0 00-1.182-4.13c-.573-1.277-1.391-2.291-2.455-3.079-1.063-.779-2.445-1.177-4.136-1.177v-1.268c1.7 0 3.054-.462 4.073-1.395a9.452 9.452 0 002.355-3.333c.554-1.286.936-2.508 1.145-3.649h1.473v.009zm9.492-13.332c1.064.046 2.491.082 4.301.127a252.537 252.537 0 0011.31 0 190.46 190.46 0 014.073-.063c5.901 0 10.32.96 13.257 2.889 2.927 1.929 4.4 4.646 4.4 8.151 0 1.44-.3 2.889-.891 4.347-.6 1.458-1.6 2.816-3.028 4.066-1.427 1.25-3.364 2.246-5.827 2.98-2.464.742-5.565 1.114-9.302 1.114h-6.119v-1.268h5.483c2.509 0 4.41-.48 5.701-1.431 1.291-.951 2.191-2.219 2.673-3.804.482-1.585.736-3.351.736-5.298 0-3.342-.6-5.932-1.782-7.77-1.191-1.839-3.228-2.763-6.119-2.763-1.655 0-2.727.363-3.218 1.078-.491.716-.737 2.183-.737 4.374v31.481c0 1.521.118 2.662.355 3.423.236.761.691 1.268 1.373 1.522.682.253 1.7.425 3.055.507v1.268a72.857 72.857 0 00-4.328-.154 509.962 509.962 0 00-5.292-.036c-2.036 0-3.964.009-5.764.036-1.809.018-3.237.072-4.301.154v-1.268c1.355-.082 2.382-.254 3.055-.507.682-.254 1.137-.761 1.373-1.522.237-.761.355-1.902.355-3.423V235.84c0-1.566-.118-2.717-.355-3.459-.236-.743-.7-1.25-1.4-1.522-.7-.271-1.709-.434-3.028-.48v-1.268h-.009zm12.047 22.533c1.828.045 3.41.127 4.746.254 1.337.126 2.519.244 3.537.353 1.018.108 1.937.181 2.737.226 3.864.335 6.719 1.168 8.564 2.473 1.846 1.304 3.046 3.278 3.601 5.904l1.464 6.539c.381 1.694.782 2.88 1.209 3.55.427.68 1.036 1.015 1.846 1.015.554-.046 1.009-.181 1.372-.417.364-.235.755-.579 1.182-1.05l.891.76c-1.145 1.314-2.382 2.255-3.691 2.826-1.309.571-2.909.86-4.782.86-2.292 0-4.183-.489-5.674-1.458-1.491-.969-2.464-2.771-2.927-5.397l-1.146-6.349c-.3-1.775-.655-3.333-1.082-4.664-.427-1.331-1.009-2.391-1.755-3.17-.745-.779-1.773-1.177-3.091-1.177h-6.883l-.118-1.078z" fill="#68B966"/><path d="M401.877 229.111a100.941 100.941 0 00-.355 5.525 122.633 122.633 0 00-.091 4.121c0 .932.019 1.82.064 2.662.046.842.082 1.567.127 2.156h-1.463c-.555-3.297-1.319-5.896-2.292-7.771-.982-1.884-2.173-3.224-3.6-4.03s-3.109-1.205-5.064-1.205h-2.101c-1.236 0-2.163.109-2.8.317-.636.209-1.064.634-1.273 1.268-.209.634-.318 1.612-.318 2.917v31.86c0 1.649.173 2.88.509 3.677.337.806 1 1.332 1.973 1.585.973.254 2.419.399 4.337.444v1.395c-1.318-.046-3.019-.082-5.101-.127a305.414 305.414 0 00-6.564-.063c-1.828 0-3.61.018-5.355.063-1.746.045-3.31.081-4.719.127v-1.268c1.355-.082 2.382-.254 3.055-.507.682-.254 1.136-.761 1.373-1.522.236-.761.354-1.902.354-3.423V235.84c0-1.566-.118-2.717-.354-3.459-.237-.743-.7-1.25-1.4-1.522-.7-.271-1.71-.434-3.028-.48v-1.268c2.291.046 4.782.082 7.455.127 2.674.045 5.201.064 7.583.064h5.737c1.955 0 4.174-.009 6.656-.037 2.482-.018 4.7-.063 6.655-.154zm-9.492 21.962v1.268h-11.592v-1.268h11.592zm1.591-8.377c-.173 2.409-.245 4.257-.227 5.525.018 1.268.027 2.436.027 3.486 0 1.06.018 2.219.064 3.487.045 1.268.145 3.107.318 5.525h-1.464a18.51 18.51 0 00-1.209-4.13c-.555-1.268-1.364-2.291-2.419-3.079-1.063-.779-2.445-1.178-4.137-1.178v-1.268c1.701 0 3.055-.461 4.083-1.394a9.256 9.256 0 002.327-3.333c.528-1.286.928-2.509 1.182-3.65h1.455v.009z" fill="#68B966"/></svg>